<svg xmlns="http://www.w3.org/2000/svg" viewBox="0 0 206.28 47.54"><path d="M26.19,2.62a21.91,21.91,0,0,0-.47,5.18c-.08,2.07-.19,5-.19,8.26,0,2.77,0,7.11,0,10a.37.37,0,0,1-.36.4,1.06,1.06,0,0,1-.66-.44C16.25,16.46,11.4,10.45,4.81,3.06V18.43c0,2.44.07,4.63.54,5.57C5.9,25.1,7,25.61,9,25.86v.37H0v-.37a4.1,4.1,0,0,0,3.13-1.6c.66-1,.8-3.06.88-5.83.07-2.07.14-5,.14-8.27,0-2.77,0-3.42,0-6.23C3.83,1.09,1.79.58.25.36V0h7.4L24.91,20.18V7.8a18.56,18.56,0,0,0-.36-4.89c-.47-1.34-1.64-2.22-4-2.55V0h9V.36C27.83.62,26.77,1.24,26.19,2.62Z" fill="#072660"/><path d="M56.42,26.23H35.7v-.34a4.56,4.56,0,0,0,2.77-1.29c.44-.54.58-2.2.61-3.65,0-1.26.07-4.54.07-7V7.34c0-1.6,0-3.59-.57-4.17a3.75,3.75,0,0,0-2.58-1V1.85H54.69L57,7.44l-.34.17A16.88,16.88,0,0,0,51.51,3a18.18,18.18,0,0,0-5.93-.67A16.57,16.57,0,0,0,43,2.49c-.07.72-.17,3.19-.17,6.17,0,3.42,0,4.6,0,4.84a27.15,27.15,0,0,0,4.27-.27c2.74-.65,3.39-2.14,3.93-4.68h.4V19.22h-.4a9.47,9.47,0,0,0-2-4A4.75,4.75,0,0,0,46,14.11C44.64,14,44.33,14,42.91,14c-.07.61-.07,2-.07,3.28s0,3.15,0,4a8.51,8.51,0,0,0,.51,3.49c.41.61,2.17.88,4,.88a29.17,29.17,0,0,0,3.36-.2c2.84-.38,4.8-2,7-5.86l.37.1Z" fill="#072660"/><path d="M94.2,3.17a8.52,8.52,0,0,0-2,3.73c-1.49,4.43-3.83,11-5.56,16.18L85.23,26.4h-.34c-2.43-6.64-4.16-11.82-6-16.9-1.49,4.17-3.25,9.31-4.78,13.51L72.6,26.4h-.4c-2.78-7.45-5-13-7.08-18.76a38.21,38.21,0,0,0-1.45-3.55,3.18,3.18,0,0,0-2.92-1.87V1.85h9.62v.34c-.44,0-2.51.2-2.51,1.73,0,1.18,4.74,13.17,6.23,17.16.27-.71,2.34-6.4,4.37-12.59-.68-1.8-1.15-3.08-1.79-4.4a3.43,3.43,0,0,0-3.32-1.87V1.85H84v.34c-.55.07-3.15.34-3.15,1.73,0,.88,5,14.38,5.89,17,.37-1,3-8.67,4.5-13.51a9.77,9.77,0,0,0,.61-3.32c0-1.32-1.79-1.72-2.91-1.86V1.85h7.45v.34A4,4,0,0,0,94.2,3.17Z" fill="#072660"/><path d="M115.44,15.19c-2.54.91-6,.85-8.2.85,0,2.91,0,3.82,0,5.31s0,2.47.44,3.15a3.88,3.88,0,0,0,3.21,1.39v.34H100.1v-.34a4.58,4.58,0,0,0,2.84-1.22c.48-.58.51-2.27.54-3.72,0-1.26.07-4.54.07-7V7.34c0-1.6,0-3.53-.57-4.1a5.06,5.06,0,0,0-3-1.05V1.85c.85,0,7.18-.07,9.62-.07,2.94,0,5.18.17,7.21,1.29a6.52,6.52,0,0,1,3.45,5.82A6.71,6.71,0,0,1,115.44,15.19ZM113,2.93a8.61,8.61,0,0,0-3.62-.64,9.9,9.9,0,0,0-1.72.14,7.71,7.71,0,0,0-.31,2.6c-.1,3.15-.07,9.86-.07,10.53a15.63,15.63,0,0,0,4.88-.54,6.44,6.44,0,0,0,4.47-6.3A6.31,6.31,0,0,0,113,2.93Z" fill="#072660"/><path d="M137.65,26.23v-.34c.3,0,2.37-.27,2.37-1.56,0-.78-1.09-3.89-2.44-7.45h-9c-.68,1.7-1.33,3.22-1.93,4.81a8.91,8.91,0,0,0-.72,2.57c0,1.19,1.63,1.49,2.81,1.63v.34h-7.27v-.38a4.41,4.41,0,0,0,2.3-1,16,16,0,0,0,2.1-3.72c1.93-4.27,4.84-11.14,7-16.22l-.34-.74a6.82,6.82,0,0,0,3-2.81h.27l7.11,19a35.59,35.59,0,0,0,1.42,3.32,3.87,3.87,0,0,0,3.25,2.1v.41ZM133.21,5.71c-.5,1.22-2.2,5.15-4.33,10.46h8.43C135.79,12.14,134,7.74,133.21,5.71Z" fill="#072660"/><path d="M169.88,26.23a11.88,11.88,0,0,1-2-2.58,54.7,54.7,0,0,0-4.64-6.43,6.63,6.63,0,0,0-3.15-2.3,8.63,8.63,0,0,0-1.76-.17c0,2.91,0,5.08,0,6.57s0,2.47.44,3.15a3.91,3.91,0,0,0,3.21,1.42v.34H151.23v-.34a4.58,4.58,0,0,0,2.84-1.22c.48-.58.51-2.27.54-3.72,0-1.26.07-4.54.07-7V7.34c0-1.6,0-3.53-.57-4.1a4.05,4.05,0,0,0-2.68-1.05V1.85l9.28,0c3,0,5.31,0,7.24,1.05a5.84,5.84,0,0,1,3.32,5.48c0,3.32-2.57,5.28-5.59,6.23v.1a7,7,0,0,1,2.17,2.17c1.19,1.69,2.68,3.89,3.76,5.42,1.66,2.37,3.08,3.31,5.21,3.62v.34ZM164.06,3a8.35,8.35,0,0,0-3.59-.71,14,14,0,0,0-1.83.1,12.9,12.9,0,0,0-.2,2.6c-.1,3.15-.07,8.57-.07,9.28a16.12,16.12,0,0,0,4.91-.61,5.48,5.48,0,0,0,4.1-5.55A5.44,5.44,0,0,0,164.06,3Z" fill="#072660"/><path d="M198.66,26.23a2.68,2.68,0,0,1-.67-.55c-2.88-3.35-5.35-6.22-8.16-9.31-1.19-1.28-1.46-1.45-1.76-1.45s-.41.17-.54.51c0,2.33,0,4.53,0,6a6.28,6.28,0,0,0,.57,3.12c.65.88,2.34,1.25,3.25,1.32v.34H180.52v-.34a4.84,4.84,0,0,0,2.81-1.15c.47-.54.47-2.34.51-3.79,0-1.26,0-4.54,0-7V7.34c0-1.7,0-3.32-.54-3.93a3.94,3.94,0,0,0-2.71-1.22V1.85h10.49v.34c-1.69.2-3.38.3-3.48,4.06-.07,2.07-.07,3.22-.07,8.26,1.62-.95,5.85-5.28,8-7.65A5,5,0,0,0,197,4.19c0-1.32-1.08-1.83-2.24-2V1.85h9.08v.34c-2.31.2-4.67,2.2-7.08,4.43-1.86,1.77-4.06,4-5.62,5.62.75.95,5.66,6.47,9.45,10.7a14.82,14.82,0,0,0,2.74,2.37,9.6,9.6,0,0,0,2.91.58v.34Z" fill="#072660"/><g opacity="0.9"><path d="M16.17,43.29l4-10.22h1.09l3.92,10.22h-1L23,40.08H18.37l-1.21,3.21Zm2.52-4h4l-2-5.36Z" fill="#072660"/><path d="M35.24,36a2.93,2.93,0,0,0-1.11-1.86A3.73,3.73,0,0,0,32,33.62a3.17,3.17,0,0,0-1.59.37,3.27,3.27,0,0,0-1.1,1,4.49,4.49,0,0,0-.64,1.44,7,7,0,0,0-.21,1.73,7.77,7.77,0,0,0,.18,1.67,4.58,4.58,0,0,0,.59,1.47,3,3,0,0,0,1.11,1,3.4,3.4,0,0,0,1.74.4,3.19,3.19,0,0,0,1.19-.21,3,3,0,0,0,1-.59,3.34,3.34,0,0,0,.68-.89,4.81,4.81,0,0,0,.42-1.12h1a6.66,6.66,0,0,1-.5,1.4A3.94,3.94,0,0,1,35,42.48a3.77,3.77,0,0,1-1.29.78,4.85,4.85,0,0,1-1.78.29,4.34,4.34,0,0,1-2-.43A3.89,3.89,0,0,1,28.53,42a5,5,0,0,1-.77-1.71,8.61,8.61,0,0,1-.24-2.06,7.53,7.53,0,0,1,.36-2.49,4.59,4.59,0,0,1,1-1.67,3.87,3.87,0,0,1,1.51-.93,5.66,5.66,0,0,1,1.88-.29,5.26,5.26,0,0,1,1.46.2,3.75,3.75,0,0,1,1.19.62,3.24,3.24,0,0,1,.85,1A4.14,4.14,0,0,1,36.23,36Z" fill="#072660"/><path d="M38.72,43.29l4-10.22h1.1l3.91,10.22h-1l-1.18-3.21H40.92l-1.21,3.21Zm2.52-4h4l-2-5.36Z" fill="#072660"/><path d="M50.54,43.29V33.07H54c.28,0,.56,0,.84,0a5.3,5.3,0,0,1,.8.1,3.68,3.68,0,0,1,1.51.64,3.27,3.27,0,0,1,.84.9,5.22,5.22,0,0,1,.51,1.13,6.2,6.2,0,0,1,.27,1.19,7.43,7.43,0,0,1,.08,1.11,9.2,9.2,0,0,1-.06,1,6.07,6.07,0,0,1-.21,1,5.6,5.6,0,0,1-.37,1,4.16,4.16,0,0,1-.59.85,3.27,3.27,0,0,1-.78.63,3.45,3.45,0,0,1-.88.38,4.84,4.84,0,0,1-1,.18,8.55,8.55,0,0,1-1,.06Zm1-.83h2.32A7.9,7.9,0,0,0,55,42.38,3.37,3.37,0,0,0,56.21,42a2.28,2.28,0,0,0,.84-.69,3.71,3.71,0,0,0,.52-1,4.83,4.83,0,0,0,.27-1.09,8.23,8.23,0,0,0,.08-1.09A11,11,0,0,0,57.85,37a5,5,0,0,0-.27-1.09A4.24,4.24,0,0,0,57,35a2.73,2.73,0,0,0-.88-.72A3.11,3.11,0,0,0,55.08,34a10.64,10.64,0,0,0-1.26-.07H51.5Z" fill="#072660"/><path d="M62.2,43.29V33.07H69v.82H63.17v3.69h5.26v.82H63.17v4.06h6v.83Z" fill="#072660"/><path d="M72.25,43.29V33.07h1.48l3.35,9h0l3.3-9h1.46V43.29h-1V34.17h0l-3.34,9.12h-.91l-3.37-9.12h0v9.12Z" fill="#072660"/><path d="M88.67,38l3.08-4.92h1.12l-3.7,5.76v4.46h-1V38.9l-3.65-5.83h1.11Z" fill="#072660"/><path d="M97.42,38.79a5.19,5.19,0,0,1,1.06-1.51,5.13,5.13,0,0,1,1.42-1,3.65,3.65,0,0,1,1.51-.36,2.39,2.39,0,0,1,1.13.26,2.44,2.44,0,0,1,.8.69,2.68,2.68,0,0,1,.47.92,3.3,3.3,0,0,1,.15,1,4.1,4.1,0,0,1-.42,1.83,5.44,5.44,0,0,1-1.05,1.51,4.82,4.82,0,0,1-1.41,1,3.42,3.42,0,0,1-1.48.38,2.34,2.34,0,0,1-1.07-.24,2.51,2.51,0,0,1-.82-.62,2.73,2.73,0,0,1-.53-.89A3.21,3.21,0,0,1,97,40.67,4.28,4.28,0,0,1,97.42,38.79Zm1.09,4.07a1.42,1.42,0,0,0,1,.41,1.7,1.7,0,0,0,1-.3,3.4,3.4,0,0,0,.82-.79,6.25,6.25,0,0,0,.65-1.1,10,10,0,0,0,.48-1.2c.12-.4.22-.78.29-1.14a4.53,4.53,0,0,0,.1-.86,2.08,2.08,0,0,0-.34-1.27,1.4,1.4,0,0,0-1.2-.47,1.68,1.68,0,0,0-.91.28,3.31,3.31,0,0,0-.8.75,5.55,5.55,0,0,0-.64,1,9.25,9.25,0,0,0-.48,1.19,12.06,12.06,0,0,0-.29,1.19,6.73,6.73,0,0,0-.1,1A1.72,1.72,0,0,0,98.51,42.86Z" fill="#072660"/><path d="M107.15,35.21a7.84,7.84,0,0,1,.75-1.81,7.45,7.45,0,0,1,1.1-1.46,5,5,0,0,1,1.34-1,3.16,3.16,0,0,1,1.43-.36,2,2,0,0,1,.74.12,1.79,1.79,0,0,1,.5.32,1.27,1.27,0,0,1,.29.42,1.14,1.14,0,0,1,.09.42,1.12,1.12,0,0,1-.16.57.6.6,0,0,1-.59.28.77.77,0,0,1-.53-.14.42.42,0,0,1-.15-.32A.65.65,0,0,1,112,32a1.4,1.4,0,0,1,.15-.24l.13-.21a.41.41,0,0,0,.06-.23.4.4,0,0,0-.19-.38,1.06,1.06,0,0,0-.45-.09,2,2,0,0,0-1.32.47,4.35,4.35,0,0,0-1,1.12,7.4,7.4,0,0,0-.66,1.32c-.16.46-.29.83-.36,1.11l-.35,1.27h2.05l-.07.24h-2L106.51,42a14.86,14.86,0,0,1-.71,2.07,9.38,9.38,0,0,1-1,1.77,5,5,0,0,1-1.22,1.22,2.36,2.36,0,0,1-1.39.46,1.9,1.9,0,0,1-.46,0,1.3,1.3,0,0,1-.44-.17A1.07,1.07,0,0,1,101,47a1,1,0,0,1-.14-.54.87.87,0,0,1,.19-.55.73.73,0,0,1,.6-.24.63.63,0,0,1,.35.09c.09,0,.13.17.13.35a1.08,1.08,0,0,1-.08.38,1,1,0,0,0-.09.42.36.36,0,0,0,.15.32.63.63,0,0,0,.35.1q.7,0,1.35-1a11.05,11.05,0,0,0,1.23-3.1l1.83-6.89h-1.58l.06-.24h1.59Z" fill="#072660"/><path d="M117.92,43.29V33.07h1.47l3.35,9h0l3.29-9h1.47V43.29h-1V34.17h0l-3.35,9.12h-.91l-3.36-9.12h0v9.12Z" fill="#072660"/><path d="M131.21,33.07h1v6.08a4.28,4.28,0,0,0,.71,2.75,2.85,2.85,0,0,0,2.28.83,3.85,3.85,0,0,0,1.4-.22,2.13,2.13,0,0,0,.93-.67,2.65,2.65,0,0,0,.51-1.11,6.63,6.63,0,0,0,.16-1.58V33.07h1v6.37a4.38,4.38,0,0,1-1,3.06,4.72,4.72,0,0,1-6,0,4.37,4.37,0,0,1-1-3Z" fill="#072660"/><path d="M143.26,40.23a3,3,0,0,0,.31,1.16,2.2,2.2,0,0,0,.64.77,2.52,2.52,0,0,0,.9.44,4.23,4.23,0,0,0,1.09.13,3.77,3.77,0,0,0,1.18-.17,2.26,2.26,0,0,0,.81-.46,1.91,1.91,0,0,0,.46-.67,2.24,2.24,0,0,0,.15-.81,1.61,1.61,0,0,0-.27-1,2.2,2.2,0,0,0-.71-.6,4.25,4.25,0,0,0-1-.38l-1.15-.27c-.39-.09-.77-.2-1.15-.32a3.83,3.83,0,0,1-1-.5,2.36,2.36,0,0,1-.7-.8,2.56,2.56,0,0,1-.27-1.24,2.51,2.51,0,0,1,.22-1,2.37,2.37,0,0,1,.65-.87,3.28,3.28,0,0,1,1.09-.62,4.56,4.56,0,0,1,1.5-.22,4.31,4.31,0,0,1,1.51.24,2.94,2.94,0,0,1,1.07.66,2.61,2.61,0,0,1,.64,1,3.29,3.29,0,0,1,.21,1.18h-.92a2.43,2.43,0,0,0-.2-1,2,2,0,0,0-.56-.69,2.36,2.36,0,0,0-.81-.4,3.33,3.33,0,0,0-.94-.13,3.21,3.21,0,0,0-1.24.21,2,2,0,0,0-.8.53,1.89,1.89,0,0,0-.42.72,2,2,0,0,0,0,.8,1.39,1.39,0,0,0,.4.79,2.48,2.48,0,0,0,.77.49,5.34,5.34,0,0,0,1,.31l1.11.26c.38.09.74.2,1.1.32a3.25,3.25,0,0,1,.94.5,2.08,2.08,0,0,1,.66.8,2.6,2.6,0,0,1,.25,1.22,2.63,2.63,0,0,1-1,2.2,4.31,4.31,0,0,1-2.75.78,5,5,0,0,1-1.48-.2,3.45,3.45,0,0,1-1.17-.62,2.88,2.88,0,0,1-.78-1,3.62,3.62,0,0,1-.27-1.46Z" fill="#072660"/><path d="M153.3,43.29V33.07h1V43.29Z" fill="#072660"/><path d="M165.57,36a2.93,2.93,0,0,0-1.11-1.86,3.73,3.73,0,0,0-2.11-.55,3.2,3.2,0,0,0-1.59.37,3.37,3.37,0,0,0-1.1,1,4.49,4.49,0,0,0-.64,1.44,7,7,0,0,0-.2,1.73,8.45,8.45,0,0,0,.17,1.67,4.58,4.58,0,0,0,.59,1.47,3.17,3.17,0,0,0,1.11,1,3.41,3.41,0,0,0,1.75.4,3.27,3.27,0,0,0,1.19-.21,2.94,2.94,0,0,0,.94-.59,3.34,3.34,0,0,0,.68-.89,4.06,4.06,0,0,0,.42-1.12h1a6.66,6.66,0,0,1-.5,1.4,3.94,3.94,0,0,1-.86,1.16,3.77,3.77,0,0,1-1.29.78,4.85,4.85,0,0,1-1.78.29,4.34,4.34,0,0,1-2-.43A3.86,3.86,0,0,1,158.87,42a4.78,4.78,0,0,1-.78-1.71,8.61,8.61,0,0,1-.24-2.06,7.53,7.53,0,0,1,.36-2.49,4.59,4.59,0,0,1,1-1.67,3.87,3.87,0,0,1,1.51-.93,5.68,5.68,0,0,1,1.89-.29,5.18,5.18,0,0,1,1.45.2,3.64,3.64,0,0,1,1.19.62,3.24,3.24,0,0,1,.85,1,3.93,3.93,0,0,1,.46,1.39Z" fill="#072660"/></g><path d="M173.26,37.81l2.12,0v.62l-1.65,0v1.71l1.36,0v.63h-1.36l0,2,1.65,0v.62l-2.12,0Z" fill="#072660"/><path d="M176.82,43.49a1.16,1.16,0,0,1-.76-.35l.08-.51a1.07,1.07,0,0,0,.69.36c.23,0,.37-.16.37-.46s-.12-.4-.44-.51a1,1,0,0,1-.63-1c0-.5.2-1,.7-1a1,1,0,0,1,.64.29l-.07.48a.88.88,0,0,0-.56-.29c-.25,0-.34.17-.33.41s.13.36.37.45a1,1,0,0,1,.69,1C177.58,43.06,177.31,43.49,176.82,43.49Z" fill="#072660"/><path d="M179,40.61l0,2.74h-.43l0-2.73h-.4v-.45h.41l0-1.07H179v1.08h.4v.45Z" fill="#072660"/><path d="M180.18,42.48h.53v.86h-.54Z" fill="#072660"/><path d="M185,43.28l-2.3,0V43c.61,0,.82-.27.81-.93l0-2.48c0-.51-.14-.74-.39-.74a1,1,0,0,0-.42.14l-.06-.29,1.31-.84h.2l.05,4.2c0,.68.24.89.83.9Z" fill="#072660"/><path d="M188.7,40.76c0,2.33-.89,4-2.2,4a1.17,1.17,0,0,1-.78-.24l.1-.35a1,1,0,0,0,.58.17c1,0,1.57-1.17,1.61-3.25h0c-.19.66-.55,1-1,1-.72,0-1.22-.79-1.23-2s.58-2.28,1.43-2.29S188.68,38.94,188.7,40.76Zm-.69-.23c0-1.52-.34-2.27-.92-2.26s-.74.64-.73,1.68.31,1.59.83,1.58S187.85,41.21,188,40.53Z" fill="#072660"/><path d="M189.65,44.62l2.12-5.71-2.28,0,.18-1,2.51,0,.12.27-2.15,6.43Z" fill="#072660"/><path d="M196,40.69c0,2.32-.89,4-2.2,4a1.12,1.12,0,0,1-.78-.24l.1-.35a1,1,0,0,0,.58.17c1,0,1.57-1.17,1.61-3.25h-.05c-.19.66-.55,1-1,1-.72,0-1.22-.79-1.23-2,0-1.33.58-2.29,1.43-2.3S196,38.86,196,40.69Zm-.69-.23c0-1.53-.34-2.28-.92-2.27s-.74.64-.73,1.68.31,1.59.83,1.58S195.14,41.13,195.3,40.46Z" fill="#072660"/></svg>