<svg xmlns="http://www.w3.org/2000/svg" viewBox="0 0 260 260"><circle cx="130" cy="130" r="127" fill="none" stroke="#fff" stroke-miterlimit="10" stroke-width="6"/><path d="M53.05,107.85a21.88,21.88,0,0,0-.47,5.17c-.08,2.08-.19,5-.19,8.27,0,2.77,0,7.11,0,10a.37.37,0,0,1-.36.4,1.06,1.06,0,0,1-.66-.44c-8.3-9.51-13.15-15.52-19.74-22.91v15.37c0,2.44.07,4.63.54,5.57.55,1.1,1.64,1.61,3.61,1.86v.37h-9v-.37a4.1,4.1,0,0,0,3.13-1.6c.66-1,.8-3.06.88-5.83.07-2.08.14-5,.14-8.27,0-2.77,0-3.42,0-6.23-.3-2.84-2.34-3.35-3.87-3.57v-.36h7.4l17.26,20.18V113a18.48,18.48,0,0,0-.36-4.88c-.47-1.34-1.64-2.22-4-2.55v-.36h9v.36C54.69,105.85,53.63,106.47,53.05,107.85Z" fill="#fff"/><path d="M83.28,131.46H62.56v-.34a4.56,4.56,0,0,0,2.77-1.29c.44-.54.58-2.2.61-3.66,0-1.25.07-4.53.07-7v-6.61c0-1.59,0-3.58-.57-4.16a3.75,3.75,0,0,0-2.58-1v-.34H81.55l2.3,5.59-.34.17a17,17,0,0,0-5.14-4.61,18.09,18.09,0,0,0-5.93-.68,16.34,16.34,0,0,0-2.57.17c-.07.71-.17,3.19-.17,6.16,0,3.42,0,4.61,0,4.85a27.15,27.15,0,0,0,4.27-.27c2.74-.65,3.39-2.14,3.93-4.68h.4v10.67h-.4a9.47,9.47,0,0,0-2-4,4.75,4.75,0,0,0-3.08-1.15c-1.35-.07-1.66-.07-3.08-.07-.07.61-.07,2-.07,3.28s0,3.15,0,4a8.51,8.51,0,0,0,.51,3.49c.41.61,2.17.88,4,.88a29.17,29.17,0,0,0,3.36-.2c2.84-.38,4.8-2,7-5.86l.37.1Z" fill="#fff"/><path d="M121.06,108.4a8.52,8.52,0,0,0-2,3.72c-1.49,4.44-3.83,11-5.56,16.19l-1.42,3.31h-.34c-2.43-6.63-4.16-11.81-6-16.89-1.49,4.17-3.25,9.31-4.78,13.51l-1.49,3.38h-.4c-2.78-7.44-5-13-7.08-18.75-.64-1.69-.91-2.44-1.45-3.56a3.19,3.19,0,0,0-2.92-1.86v-.37h9.62v.34c-.44,0-2.51.2-2.51,1.73,0,1.18,4.74,13.16,6.23,17.16.27-.71,2.34-6.4,4.37-12.59-.68-1.8-1.15-3.09-1.79-4.41a3.44,3.44,0,0,0-3.32-1.86v-.37H110.8v.34c-.54.07-3.14.34-3.14,1.73,0,.88,5,14.38,5.89,17,.37-1,3-8.67,4.5-13.51a9.77,9.77,0,0,0,.61-3.32c0-1.32-1.8-1.73-2.91-1.86v-.34h7.45v.34A3.93,3.93,0,0,0,121.06,108.4Z" fill="#fff"/><path d="M142.3,120.42c-2.54.91-6,.85-8.2.85,0,2.91,0,3.82,0,5.31s0,2.47.44,3.15a3.91,3.91,0,0,0,3.21,1.39v.34H127v-.34a4.58,4.58,0,0,0,2.84-1.22c.48-.58.51-2.27.54-3.73,0-1.25.07-4.53.07-7v-6.61c0-1.59,0-3.52-.57-4.09a5.06,5.06,0,0,0-3-1v-.34c.85,0,7.18-.07,9.62-.07,2.94,0,5.18.17,7.21,1.29a6.52,6.52,0,0,1,3.45,5.82A6.71,6.71,0,0,1,142.3,120.42Zm-2.48-12.26a8.61,8.61,0,0,0-3.62-.64,10.17,10.17,0,0,0-1.73.14,8.21,8.21,0,0,0-.3,2.6c-.1,3.15-.07,9.85-.07,10.53a15.63,15.63,0,0,0,4.88-.54,6.44,6.44,0,0,0,4.47-6.3A6.31,6.31,0,0,0,139.82,108.16Z" fill="#fff"/><path d="M164.51,131.46v-.34c.3,0,2.37-.27,2.37-1.56,0-.78-1.09-3.89-2.44-7.45h-9c-.68,1.69-1.33,3.22-1.93,4.81a8.91,8.91,0,0,0-.72,2.57c0,1.19,1.63,1.49,2.81,1.63v.34h-7.27v-.38a4.41,4.41,0,0,0,2.3-1,16,16,0,0,0,2.1-3.72c1.93-4.27,4.84-11.14,7-16.22l-.34-.74a6.82,6.82,0,0,0,3-2.81h.27l7.11,19a35.59,35.59,0,0,0,1.42,3.32,3.87,3.87,0,0,0,3.25,2.1v.41Zm-4.44-20.52c-.5,1.22-2.2,5.15-4.33,10.46h8.43C162.65,117.37,160.89,113,160.07,110.94Z" fill="#fff"/><path d="M196.74,131.46a11.88,11.88,0,0,1-2-2.58,54.7,54.7,0,0,0-4.64-6.43,6.63,6.63,0,0,0-3.15-2.3,8.63,8.63,0,0,0-1.76-.17c0,2.91,0,5.08,0,6.57s0,2.47.44,3.15a3.91,3.91,0,0,0,3.21,1.42v.34H178.09v-.34a4.58,4.58,0,0,0,2.84-1.22c.48-.58.51-2.27.54-3.73,0-1.25.07-4.53.07-7v-6.61c0-1.59,0-3.52-.57-4.09a4.05,4.05,0,0,0-2.68-1v-.34l9.28,0c3,0,5.31,0,7.24,1a5.84,5.84,0,0,1,3.32,5.48c0,3.32-2.57,5.28-5.59,6.23v.1a7,7,0,0,1,2.17,2.17c1.19,1.69,2.68,3.89,3.76,5.42,1.66,2.36,3.08,3.31,5.21,3.62v.34Zm-5.82-23.19a8.35,8.35,0,0,0-3.59-.72,13.35,13.35,0,0,0-1.83.11,12.9,12.9,0,0,0-.2,2.6c-.1,3.15-.07,8.57-.07,9.28a16.12,16.12,0,0,0,4.91-.61,5.71,5.71,0,0,0,.78-10.66Z" fill="#fff"/><path d="M225.52,131.46a2.68,2.68,0,0,1-.67-.55c-2.88-3.35-5.35-6.22-8.16-9.31-1.19-1.28-1.46-1.45-1.76-1.45s-.41.17-.54.51c0,2.33,0,4.53,0,6a6.28,6.28,0,0,0,.57,3.12c.65.88,2.34,1.25,3.25,1.32v.34H207.38v-.34a4.84,4.84,0,0,0,2.81-1.15c.47-.55.47-2.34.51-3.8,0-1.25,0-4.53,0-7v-6.61c0-1.69,0-3.31-.54-3.92a3.9,3.9,0,0,0-2.71-1.22v-.34H218v.34c-1.69.2-3.38.3-3.48,4.06-.07,2.07-.07,3.22-.07,8.26,1.62-.95,5.85-5.28,8-7.65a5,5,0,0,0,1.49-2.67c0-1.32-1.09-1.83-2.24-2v-.34h9.08v.34c-2.31.2-4.67,2.2-7.08,4.43-1.86,1.76-4.06,4-5.62,5.62.75,1,5.66,6.47,9.45,10.7a14.82,14.82,0,0,0,2.74,2.37,9.6,9.6,0,0,0,2.91.58v.34Z" fill="#fff"/><g opacity="0.9"><path d="M53,153.51l4-10.21h1.09l3.92,10.21h-1l-1.18-3.2H55.23L54,153.51Zm2.52-4h4l-2-5.36Z" fill="#fff"/><path d="M72.1,146.26A2.93,2.93,0,0,0,71,144.4a3.65,3.65,0,0,0-2.11-.55,3.17,3.17,0,0,0-1.59.37,3.27,3.27,0,0,0-1.1,1,4.49,4.49,0,0,0-.64,1.44,7,7,0,0,0-.21,1.73,7.77,7.77,0,0,0,.18,1.67,4.58,4.58,0,0,0,.59,1.47,3,3,0,0,0,1.11,1A3.4,3.4,0,0,0,69,153a3.19,3.19,0,0,0,1.19-.21,3,3,0,0,0,.95-.59,3.34,3.34,0,0,0,.68-.89,4.81,4.81,0,0,0,.42-1.12h1a6.66,6.66,0,0,1-.5,1.4,4.07,4.07,0,0,1-.86,1.16,3.77,3.77,0,0,1-1.29.78,4.85,4.85,0,0,1-1.78.29,4.34,4.34,0,0,1-2-.43,3.89,3.89,0,0,1-1.37-1.17,5,5,0,0,1-.77-1.71,8.61,8.61,0,0,1-.24-2.06,7.53,7.53,0,0,1,.36-2.49,4.59,4.59,0,0,1,1-1.67,3.76,3.76,0,0,1,1.51-.93,5.66,5.66,0,0,1,1.88-.29,5.26,5.26,0,0,1,1.46.2,3.75,3.75,0,0,1,1.19.62,3.21,3.21,0,0,1,.85,1,4.27,4.27,0,0,1,.46,1.4Z" fill="#fff"/><path d="M75.58,153.51l4-10.21h1.1l3.91,10.21h-1l-1.18-3.2H77.78l-1.21,3.2Zm2.52-4h4l-2-5.36Z" fill="#fff"/><path d="M87.4,153.51V143.3h3.49c.28,0,.56,0,.84,0a4.27,4.27,0,0,1,.8.1,3.68,3.68,0,0,1,1.51.64,3.27,3.27,0,0,1,.84.9,5.22,5.22,0,0,1,.51,1.13,6.2,6.2,0,0,1,.27,1.19,7.43,7.43,0,0,1,.08,1.11,9.2,9.2,0,0,1-.06,1,6.07,6.07,0,0,1-.21,1,5.6,5.6,0,0,1-.37,1,4.16,4.16,0,0,1-.59.85,3.27,3.27,0,0,1-.78.63,3.6,3.6,0,0,1-.88.38,4.84,4.84,0,0,1-.95.18,8.54,8.54,0,0,1-1,0Zm1-.82h2.32a7.9,7.9,0,0,0,1.22-.08,3.37,3.37,0,0,0,1.17-.39,2.36,2.36,0,0,0,.84-.69,3.88,3.88,0,0,0,.52-1,5,5,0,0,0,.27-1.09,8.23,8.23,0,0,0,.08-1.09,11,11,0,0,0-.07-1.13,5,5,0,0,0-.27-1.09,4.24,4.24,0,0,0-.54-.95,2.73,2.73,0,0,0-.88-.72,3.11,3.11,0,0,0-1.08-.31,10.64,10.64,0,0,0-1.26-.07H88.36Z" fill="#fff"/><path d="M99.06,153.51V143.3h6.8v.82H100v3.69h5.26v.82H100v4.06h6v.82Z" fill="#fff"/><path d="M109.11,153.51V143.3h1.48l3.34,9h0l3.3-9h1.46v10.21h-1V144.4h0l-3.34,9.11h-.91l-3.37-9.11h0v9.11Z" fill="#fff"/><path d="M125.53,148.22l3.08-4.92h1.12l-3.7,5.76v4.45h-1v-4.38l-3.65-5.83h1.11Z" fill="#fff"/><path d="M134.28,149a5.18,5.18,0,0,1,1.06-1.52,5.3,5.3,0,0,1,1.42-1,3.65,3.65,0,0,1,1.51-.36,2.39,2.39,0,0,1,1.13.26,2.44,2.44,0,0,1,.8.69,2.86,2.86,0,0,1,.47.92,3.3,3.3,0,0,1,.15,1,4.1,4.1,0,0,1-.42,1.83,5.59,5.59,0,0,1-1.05,1.51,4.82,4.82,0,0,1-1.41,1,3.4,3.4,0,0,1-1.48.37,2.34,2.34,0,0,1-1.07-.23,2.65,2.65,0,0,1-.82-.62A2.73,2.73,0,0,1,134,152a3.22,3.22,0,0,1-.18-1.08A4.27,4.27,0,0,1,134.28,149Zm1.09,4.07a1.42,1.42,0,0,0,1,.41,1.71,1.71,0,0,0,1-.3,3.26,3.26,0,0,0,.82-.8,5.82,5.82,0,0,0,.65-1.09,10,10,0,0,0,.48-1.2c.12-.4.22-.78.29-1.14a4.53,4.53,0,0,0,.1-.86,2.08,2.08,0,0,0-.34-1.27,1.4,1.4,0,0,0-1.2-.47,1.6,1.6,0,0,0-.91.28,3.31,3.31,0,0,0-.8.75,5.55,5.55,0,0,0-.64,1,9.25,9.25,0,0,0-.48,1.19,11.41,11.41,0,0,0-.29,1.19,6.73,6.73,0,0,0-.1,1A1.72,1.72,0,0,0,135.37,153.09Z" fill="#fff"/><path d="M146,145.43a8,8,0,0,1,.75-1.8,7.45,7.45,0,0,1,1.1-1.46,5,5,0,0,1,1.34-1,3.12,3.12,0,0,1,1.43-.36,2,2,0,0,1,.74.12,1.79,1.79,0,0,1,.5.32,1.27,1.27,0,0,1,.29.42,1.14,1.14,0,0,1,.09.42,1.12,1.12,0,0,1-.16.57.6.6,0,0,1-.59.28.77.77,0,0,1-.53-.14.42.42,0,0,1-.15-.32.73.73,0,0,1,.06-.3A1.82,1.82,0,0,1,151,142l.13-.21a.41.41,0,0,0,.06-.23.39.39,0,0,0-.19-.38,1.06,1.06,0,0,0-.45-.09,2,2,0,0,0-1.32.47,4.16,4.16,0,0,0-1,1.12,7.4,7.4,0,0,0-.66,1.32c-.16.46-.29.82-.36,1.11l-.35,1.27h2l-.07.24h-2l-1.49,5.66a14.86,14.86,0,0,1-.71,2.07,9.38,9.38,0,0,1-1,1.77,5,5,0,0,1-1.22,1.22,2.36,2.36,0,0,1-1.39.46,2.58,2.58,0,0,1-.46-.05,1.3,1.3,0,0,1-.44-.17,1.07,1.07,0,0,1-.33-.34,1,1,0,0,1-.14-.54.87.87,0,0,1,.19-.55.73.73,0,0,1,.6-.24.63.63,0,0,1,.35.09c.09.05.13.17.13.35a1,1,0,0,1-.08.37,1,1,0,0,0-.09.43.36.36,0,0,0,.15.32.63.63,0,0,0,.35.1q.71,0,1.35-1a11.05,11.05,0,0,0,1.23-3.1l1.83-6.89h-1.58l.06-.24h1.59Z" fill="#fff"/><path d="M154.78,153.51V143.3h1.47l3.35,9h0l3.29-9h1.46v10.21h-1V144.4h0L160,153.51h-.91l-3.36-9.11h0v9.11Z" fill="#fff"/><path d="M168.07,143.3h1v6.08a4.23,4.23,0,0,0,.71,2.74A2.82,2.82,0,0,0,172,153a3.85,3.85,0,0,0,1.4-.22,2.13,2.13,0,0,0,.93-.67,2.65,2.65,0,0,0,.51-1.11,6.69,6.69,0,0,0,.16-1.58V143.3h1v6.37a4.38,4.38,0,0,1-1,3.06,4.72,4.72,0,0,1-6,0,4.39,4.39,0,0,1-1-3Z" fill="#fff"/><path d="M180.12,150.46a3,3,0,0,0,.31,1.16,2.2,2.2,0,0,0,.64.77,2.52,2.52,0,0,0,.9.44,4.23,4.23,0,0,0,1.09.13,3.77,3.77,0,0,0,1.18-.17,2.26,2.26,0,0,0,.81-.46,1.91,1.91,0,0,0,.46-.67,2.24,2.24,0,0,0,.15-.81,1.61,1.61,0,0,0-.27-1,2.09,2.09,0,0,0-.71-.6,4.25,4.25,0,0,0-1-.38l-1.15-.27c-.39-.1-.77-.2-1.15-.32a3.83,3.83,0,0,1-1-.5,2.46,2.46,0,0,1-.7-.8,2.56,2.56,0,0,1-.27-1.24,2.54,2.54,0,0,1,.87-1.91,3.45,3.45,0,0,1,1.09-.61,4.56,4.56,0,0,1,1.5-.22,4.31,4.31,0,0,1,1.51.24,2.94,2.94,0,0,1,1.07.66,2.61,2.61,0,0,1,.64,1,3.29,3.29,0,0,1,.21,1.18h-.92a2.39,2.39,0,0,0-.2-1,2,2,0,0,0-.56-.7,2.53,2.53,0,0,0-.81-.39,3.33,3.33,0,0,0-.94-.13,3.21,3.21,0,0,0-1.24.21,2,2,0,0,0-.8.53,1.89,1.89,0,0,0-.42.72,1.81,1.81,0,0,0,0,.8,1.39,1.39,0,0,0,.4.79,2.48,2.48,0,0,0,.77.49,5.34,5.34,0,0,0,1,.31l1.11.26c.38.09.74.2,1.1.32a3.49,3.49,0,0,1,.94.49,2.19,2.19,0,0,1,.66.81,2.6,2.6,0,0,1,.25,1.22,2.63,2.63,0,0,1-1,2.2,4.31,4.31,0,0,1-2.75.78,5,5,0,0,1-1.48-.2,3.3,3.3,0,0,1-1.17-.63,2.76,2.76,0,0,1-.78-1,3.62,3.62,0,0,1-.27-1.46Z" fill="#fff"/><path d="M190.16,153.51V143.3h1v10.21Z" fill="#fff"/><path d="M202.43,146.26a2.93,2.93,0,0,0-1.11-1.86,3.65,3.65,0,0,0-2.11-.55,3.2,3.2,0,0,0-1.59.37,3.37,3.37,0,0,0-1.1,1,4.49,4.49,0,0,0-.64,1.44,7,7,0,0,0-.2,1.73,8.45,8.45,0,0,0,.17,1.67,4.58,4.58,0,0,0,.59,1.47,3.17,3.17,0,0,0,1.11,1,3.41,3.41,0,0,0,1.75.4,3.27,3.27,0,0,0,1.19-.21,2.94,2.94,0,0,0,.94-.59,3.34,3.34,0,0,0,.68-.89,4.06,4.06,0,0,0,.42-1.12h1a6.66,6.66,0,0,1-.5,1.4,4.07,4.07,0,0,1-.86,1.16,3.77,3.77,0,0,1-1.29.78,4.85,4.85,0,0,1-1.78.29,4.34,4.34,0,0,1-2-.43,3.86,3.86,0,0,1-1.36-1.17,4.78,4.78,0,0,1-.78-1.71,8.61,8.61,0,0,1-.24-2.06,7.53,7.53,0,0,1,.36-2.49,4.59,4.59,0,0,1,1-1.67,3.76,3.76,0,0,1,1.51-.93,5.68,5.68,0,0,1,1.89-.29,5.18,5.18,0,0,1,1.45.2,3.64,3.64,0,0,1,1.19.62,3.21,3.21,0,0,1,.85,1,4.05,4.05,0,0,1,.46,1.4Z" fill="#fff"/></g><path d="M111.5,170.78l3.45,0v1l-2.69,0,0,2.77,2.21,0v1l-2.21,0,0,3.28,2.68,0v1l-3.44,0Z" fill="#fff"/><path d="M117.3,180a1.86,1.86,0,0,1-1.24-.56l.12-.84a1.73,1.73,0,0,0,1.12.58c.38,0,.61-.25.61-.75s-.19-.63-.72-.83a1.55,1.55,0,0,1-1-1.58c0-.82.32-1.58,1.14-1.59a1.71,1.71,0,0,1,1,.47l-.12.78a1.45,1.45,0,0,0-.92-.46c-.4,0-.54.28-.54.66s.21.59.61.74a1.64,1.64,0,0,1,1.13,1.67C118.53,179.33,118.09,180,117.3,180Z" fill="#fff"/><path d="M120.8,175.34l0,4.45h-.69l0-4.45h-.66v-.72h.65l0-1.75h.69l0,1.75h.65v.73Z" fill="#fff"/><path d="M122.75,178.37h.88v1.4h-.87Z" fill="#fff"/><path d="M130.68,179.68l-3.75,0v-.47c1-.05,1.34-.43,1.33-1.51l-.05-4c0-.84-.23-1.21-.63-1.2a1.58,1.58,0,0,0-.69.21l-.1-.46,2.13-1.37h.33l.08,6.84c0,1.11.4,1.45,1.35,1.47Z" fill="#fff"/><path d="M136.63,175.59c0,3.79-1.45,6.5-3.57,6.52a2,2,0,0,1-1.28-.39l.16-.57a1.7,1.7,0,0,0,.95.27c1.68,0,2.55-1.9,2.62-5.29h-.07c-.31,1.07-.9,1.64-1.7,1.65-1.18,0-2-1.29-2-3.21,0-2.16.94-3.72,2.34-3.73C135.64,170.82,136.6,172.62,136.63,175.59Zm-1.12-.38c-.06-2.48-.56-3.7-1.5-3.69-.75,0-1.21,1-1.19,2.74s.51,2.59,1.36,2.58C134.81,176.83,135.25,176.31,135.51,175.21Z" fill="#fff"/><path d="M138.17,181.86l3.46-9.3-3.72,0,.3-1.61,4.09-.05.2.44L139,181.85Z" fill="#fff"/><path d="M148.5,175.46c0,3.79-1.45,6.5-3.57,6.52a1.9,1.9,0,0,1-1.28-.39l.16-.57a1.68,1.68,0,0,0,.95.27c1.68,0,2.55-1.9,2.61-5.29h-.07c-.31,1.07-.9,1.64-1.69,1.65-1.18,0-2-1.28-2-3.2,0-2.16.95-3.72,2.35-3.74C147.51,170.69,148.47,172.49,148.5,175.46Zm-1.12-.38c-.06-2.48-.56-3.7-1.5-3.69-.76,0-1.21,1-1.19,2.74s.51,2.59,1.36,2.58C146.68,176.7,147.11,176.18,147.38,175.08Z" fill="#fff"/></svg>