<svg id="pathway" data-name="pathway" xmlns="http://www.w3.org/2000/svg" viewBox="0 0 1027.22 660.68"><rect y="578.01" width="266.58" height="82.67" rx="12" fill="#072660"/><path d="M72.5,664.65h2.35l6.47,10.12,1.93,3.33h.11c-.12-1.62-.29-3.44-.29-5.12v-8.33h2.16v16.09H82.88l-6.47-10.12-1.93-3.33h-.11c.12,1.63.29,3.35.29,5v8.42H72.5Z" transform="translate(-35 -54.76)" fill="#fff"/><path d="M89.2,674.8a6,6,0,0,1,6-6.27c3.38,0,5.29,2.18,5.29,5.59a5.4,5.4,0,0,1-.11,1.15H91.42a4.18,4.18,0,0,0,4.39,4.16,6.28,6.28,0,0,0,3.3-.95l.8,1.32A8.32,8.32,0,0,1,95.54,681,6,6,0,0,1,89.2,674.8Zm9.26-1c0-2.39-1.2-3.68-3.27-3.68a3.85,3.85,0,0,0-3.79,3.68Z" transform="translate(-35 -54.76)" fill="#fff"/><path d="M102.52,668.82h2.29l2,6.89c.29,1.13.54,2.2.79,3.32h.11c.29-1.12.57-2.21.9-3.32l2-6.89h2.19l2.06,6.89c.33,1.13.62,2.2.93,3.32h.1c.29-1.12.54-2.19.82-3.32l1.93-6.89h2.14l-3.55,11.92H114.5l-1.91-6.4c-.32-1.13-.57-2.23-.9-3.44h-.11c-.28,1.21-.55,2.34-.9,3.47l-1.86,6.37H106.2Z" transform="translate(-35 -54.76)" fill="#fff"/><path d="M123.93,668.82h1.85l.19,1.38H126a7.34,7.34,0,0,1,4.22-1.67c3.42,0,5.25,2.39,5.25,6.07,0,4.07-2.71,6.44-5.73,6.44a6.4,6.4,0,0,1-3.67-1.38l.06,2.08v4h-2.24Zm9.27,5.8c0-2.63-1-4.39-3.49-4.39a5.65,5.65,0,0,0-3.54,1.62v6.25a5.47,5.47,0,0,0,3.22,1.24C131.58,679.34,133.2,677.56,133.2,674.62Z" transform="translate(-35 -54.76)" fill="#fff"/><path d="M138.11,677.65c0-2.6,2.49-3.9,8.13-4.45,0-1.53-.57-3-2.73-3a7.78,7.78,0,0,0-3.95,1.28l-.87-1.38a10.39,10.39,0,0,1,5.2-1.56c3.23,0,4.59,1.93,4.59,4.9v7.31h-1.85l-.19-1.42h-.07A7.47,7.47,0,0,1,142,681C139.77,681,138.11,679.8,138.11,677.65Zm8.13.18v-3.31c-4.43.48-5.93,1.46-5.93,3,0,1.35,1,1.9,2.32,1.9A5.68,5.68,0,0,0,146.24,677.83Z" transform="translate(-35 -54.76)" fill="#fff"/><path d="M152.93,668.82h1.85L155,671H155a4.58,4.58,0,0,1,3.77-2.46,3.5,3.5,0,0,1,1.41.24l-.42,1.77a4.3,4.3,0,0,0-1.28-.19c-1.12,0-2.46.72-3.35,2.74v7.65h-2.24Z" transform="translate(-35 -54.76)" fill="#fff"/><path d="M162.65,663.27h2.2V675.1h.08l5.65-6.28h2.48l-4.43,4.79,5,7.13H171.2L167.34,675l-2.49,2.6v3.13h-2.2Z" transform="translate(-35 -54.76)" fill="#fff"/><path d="M182.33,664.65h2.35l6.47,10.12,1.93,3.33h.11c-.11-1.62-.29-3.44-.29-5.12v-8.33h2.16v16.09h-2.35l-6.47-10.12-1.93-3.33h-.11c.12,1.63.29,3.35.29,5v8.42h-2.16Z" transform="translate(-35 -54.76)" fill="#fff"/><path d="M199.61,665.07a1.57,1.57,0,0,1,3.09,0,1.57,1.57,0,0,1-3.09,0Zm.41,3.75h2.24v11.92H200Z" transform="translate(-35 -54.76)" fill="#fff"/><path d="M207,668.82h1.85l.19,1.38h.07a7.34,7.34,0,0,1,4.22-1.67c3.42,0,5.25,2.39,5.25,6.07,0,4.07-2.71,6.44-5.73,6.44a6.4,6.4,0,0,1-3.67-1.38l.06,2.08v4H207Zm9.27,5.8c0-2.63-1-4.39-3.49-4.39a5.7,5.7,0,0,0-3.54,1.62v6.25a5.47,5.47,0,0,0,3.22,1.24C214.64,679.34,216.26,677.56,216.26,674.62Z" transform="translate(-35 -54.76)" fill="#fff"/><path d="M222.37,668.82h1.86l.18,1.38h.08a7.34,7.34,0,0,1,4.22-1.67c3.42,0,5.25,2.39,5.25,6.07,0,4.07-2.71,6.44-5.73,6.44a6.45,6.45,0,0,1-3.68-1.38l.06,2.08v4h-2.24Zm9.27,5.8c0-2.63-1-4.39-3.49-4.39a5.7,5.7,0,0,0-3.54,1.62v6.25a5.47,5.47,0,0,0,3.23,1.24C230,679.34,231.64,677.56,231.64,674.62Z" transform="translate(-35 -54.76)" fill="#fff"/><path d="M236.78,674.8a6,6,0,0,1,5.95-6.27c3.38,0,5.28,2.18,5.28,5.59a6.23,6.23,0,0,1-.1,1.15H239a4.19,4.19,0,0,0,4.4,4.16,6.28,6.28,0,0,0,3.3-.95l.8,1.32a8.32,8.32,0,0,1-4.37,1.24A6,6,0,0,1,236.78,674.8Zm9.25-1c0-2.39-1.19-3.68-3.26-3.68a3.86,3.86,0,0,0-3.8,3.68Z" transform="translate(-35 -54.76)" fill="#fff"/><path d="M251.54,668.82h1.85l.19,2.17h.08a4.55,4.55,0,0,1,3.76-2.46,3.46,3.46,0,0,1,1.41.24l-.42,1.77a4.3,4.3,0,0,0-1.28-.19c-1.12,0-2.45.72-3.35,2.74v7.65h-2.24Z" transform="translate(-35 -54.76)" fill="#fff"/><path d="M259.69,679.38l1.1-1.33a6.31,6.31,0,0,0,3.91,1.42c1.74,0,2.6-.84,2.6-1.85,0-1.23-1.56-1.77-3-2.26-1.85-.61-3.94-1.44-3.94-3.45s1.69-3.38,4.56-3.38a7.2,7.2,0,0,1,4.12,1.34l-1.07,1.29a5.28,5.28,0,0,0-3-1.06c-1.67,0-2.44.8-2.44,1.71,0,1.13,1.44,1.56,2.94,2.07,1.91.65,4,1.34,4,3.61,0,1.94-1.71,3.55-4.83,3.55A8.46,8.46,0,0,1,259.69,679.38Z" transform="translate(-35 -54.76)" fill="#fff"/><rect x="133.71" y="462.16" width="266.58" height="82.67" rx="12" fill="#072660"/><path d="M205.18,556.87c0-5.19,3.46-8.36,8.2-8.36a7.33,7.33,0,0,1,5.16,2l-1.25,1.33a5.32,5.32,0,0,0-3.85-1.52c-3.6,0-5.91,2.5-5.91,6.5s2.12,6.59,5.94,6.59a5.2,5.2,0,0,0,3.22-.95v-4.19H212.9v-1.7h5.86v6.77a8.1,8.1,0,0,1-5.51,1.87C208.53,565.2,205.18,562.1,205.18,556.87Z" transform="translate(-35 -54.76)" fill="#fff"/><path d="M222.26,561.81c0-2.6,2.49-3.9,8.13-4.45,0-1.53-.57-3-2.73-3a7.78,7.78,0,0,0-3.95,1.28l-.88-1.39a10.46,10.46,0,0,1,5.21-1.55c3.23,0,4.59,1.93,4.59,4.9v7.31h-1.85l-.19-1.42h-.07a7.47,7.47,0,0,1-4.38,1.72C223.92,565.2,222.26,564,222.26,561.81Zm8.13.18v-3.31c-4.43.48-5.93,1.46-5.93,3,0,1.35,1,1.9,2.32,1.9A5.68,5.68,0,0,0,230.39,562Z" transform="translate(-35 -54.76)" fill="#fff"/><path d="M237.09,561.22v-6.6h-2V553.1l2.07-.12.27-3.34h1.87V553h3.59v1.64h-3.59v6.63c0,1.46.52,2.3,2,2.3a4.85,4.85,0,0,0,1.51-.32l.43,1.52a8.64,8.64,0,0,1-2.46.45C238.05,565.2,237.09,563.59,237.09,561.22Z" transform="translate(-35 -54.76)" fill="#fff"/><path d="M244.81,559a6,6,0,0,1,5.95-6.27c3.38,0,5.29,2.18,5.29,5.59a5.4,5.4,0,0,1-.11,1.15H247a4.18,4.18,0,0,0,4.39,4.16,6.25,6.25,0,0,0,3.3-1l.8,1.32a8.41,8.41,0,0,1-4.37,1.24A6,6,0,0,1,244.81,559Zm9.26-1c0-2.39-1.2-3.69-3.27-3.69A3.86,3.86,0,0,0,247,558Z" transform="translate(-35 -54.76)" fill="#fff"/><path d="M258.13,553h2.29l2,6.89c.29,1.13.54,2.2.79,3.32h.11c.29-1.12.57-2.21.9-3.32l2-6.89h2.19l2.07,6.89c.32,1.13.61,2.2.92,3.32h.1c.29-1.12.54-2.19.82-3.32l1.93-6.89h2.14l-3.55,11.92h-2.73l-1.91-6.4c-.32-1.13-.57-2.23-.9-3.44h-.1c-.29,1.21-.56,2.34-.91,3.47l-1.86,6.37h-2.62Z" transform="translate(-35 -54.76)" fill="#fff"/><path d="M278.44,561.81c0-2.6,2.49-3.9,8.14-4.45,0-1.53-.58-3-2.74-3a7.78,7.78,0,0,0-3.95,1.28l-.87-1.39a10.42,10.42,0,0,1,5.2-1.55c3.23,0,4.6,1.93,4.6,4.9v7.31H287l-.18-1.42h-.08a7.44,7.44,0,0,1-4.38,1.72C280.11,565.2,278.44,564,278.44,561.81Zm8.14.18v-3.31c-4.44.48-5.94,1.46-5.94,3,0,1.35,1,1.9,2.32,1.9A5.73,5.73,0,0,0,286.58,562Z" transform="translate(-35 -54.76)" fill="#fff"/><path d="M291.93,569.79l.44-1.6a3.8,3.8,0,0,0,1,.17c1.5,0,2.44-1.07,3-2.55l.3-.89L291.35,553h2.31l2.71,6.6c.41,1,.86,2.26,1.29,3.36h.11c.37-1.09.75-2.31,1.11-3.36l2.36-6.6h2.19l-5,12.9c-.93,2.37-2.3,4.16-4.95,4.16A4.68,4.68,0,0,1,291.93,569.79Z" transform="translate(-35 -54.76)" fill="#fff"/><path d="M312.36,561.22v-6.6h-2V553.1l2.07-.12.27-3.34h1.87V553h3.59v1.64H314.6v6.63c0,1.46.53,2.3,2,2.3a4.85,4.85,0,0,0,1.51-.32l.43,1.52a8.64,8.64,0,0,1-2.45.45C313.32,565.2,312.36,563.59,312.36,561.22Z" transform="translate(-35 -54.76)" fill="#fff"/><path d="M320.08,559a6.14,6.14,0,1,1,6.14,6.24A6,6,0,0,1,320.08,559Zm10,0c0-2.73-1.54-4.59-3.82-4.59s-3.82,1.86-3.82,4.59,1.54,4.56,3.82,4.56S330,561.69,330,559Z" transform="translate(-35 -54.76)" fill="#fff"/><path d="M341.92,548.81h2.74l3.43,8.6c.43,1.1.84,2.23,1.27,3.35h.11c.43-1.12.8-2.25,1.23-3.35l3.39-8.6h2.74V564.9h-2.12V556c0-1.4.18-3.34.29-4.76h-.11L353.47,555l-3.36,8.33H348.6L345.22,555l-1.42-3.67h-.11c.12,1.42.29,3.36.29,4.76v8.86h-2.06Z" transform="translate(-35 -54.76)" fill="#fff"/><path d="M361.6,560.53V553h2.24v7.29c0,2.22.75,3.17,2.5,3.17,1.36,0,2.29-.6,3.55-2V553h2.24V564.9h-1.85l-.19-1.86H370a5.8,5.8,0,0,1-4.36,2.16C362.86,565.2,361.6,563.58,361.6,560.53Z" transform="translate(-35 -54.76)" fill="#fff"/><path d="M375.4,563.54l1.11-1.33a6.3,6.3,0,0,0,3.91,1.41c1.73,0,2.6-.83,2.6-1.85,0-1.22-1.57-1.77-3-2.26-1.86-.61-3.95-1.43-3.95-3.44s1.7-3.38,4.57-3.38a7.1,7.1,0,0,1,4.11,1.34l-1.07,1.29a5.28,5.28,0,0,0-3-1.06c-1.67,0-2.44.8-2.44,1.71,0,1.13,1.44,1.56,2.94,2.07,1.91.64,4,1.34,4,3.61,0,1.93-1.7,3.55-4.83,3.55A8.48,8.48,0,0,1,375.4,563.54Z" transform="translate(-35 -54.76)" fill="#fff"/><path d="M388.14,549.23a1.57,1.57,0,0,1,3.1,0,1.57,1.57,0,0,1-3.1,0Zm.41,3.75h2.24V564.9h-2.24Z" transform="translate(-35 -54.76)" fill="#fff"/><path d="M394.54,559a6.08,6.08,0,0,1,6.37-6.27,5.84,5.84,0,0,1,3.87,1.4l-1.14,1.33a4,4,0,0,0-2.63-1c-2.4,0-4.15,1.86-4.15,4.59s1.66,4.56,4.09,4.56a5.05,5.05,0,0,0,3.11-1.19l1,1.35a6.82,6.82,0,0,1-4.28,1.52A5.88,5.88,0,0,1,394.54,559Z" transform="translate(-35 -54.76)" fill="#fff"/><rect x="266.84" y="346.24" width="266.58" height="82.67" rx="12" fill="#072660"/><path d="M370.17,426.24c0-5.19,3.47-8.36,8.21-8.36a7.28,7.28,0,0,1,5.15,2l-1.24,1.33a5.34,5.34,0,0,0-3.85-1.52c-3.6,0-5.92,2.5-5.92,6.5s2.13,6.59,5.94,6.59a5.18,5.18,0,0,0,3.22-.95v-4.19H377.9v-1.7h5.86v6.77a8.1,8.1,0,0,1-5.51,1.87C373.53,434.57,370.17,431.46,370.17,426.24Z" transform="translate(-35 -54.76)" fill="#fff"/><path d="M387,431.18c0-2.6,2.48-3.9,8.13-4.45,0-1.53-.57-3-2.74-3a7.71,7.71,0,0,0-3.94,1.28l-.88-1.39a10.46,10.46,0,0,1,5.2-1.55c3.23,0,4.6,1.93,4.6,4.9v7.31h-1.85l-.19-1.42h-.08a7.44,7.44,0,0,1-4.38,1.72C388.65,434.57,387,433.33,387,431.18Zm8.13.18v-3.31c-4.44.48-5.94,1.46-5.94,3,0,1.35,1,1.9,2.32,1.9A5.71,5.71,0,0,0,395.12,431.36Z" transform="translate(-35 -54.76)" fill="#fff"/><path d="M401.54,430.59V424h-2v-1.53l2.07-.12.27-3.34h1.87v3.34h3.59V424h-3.59v6.62c0,1.46.53,2.3,2.05,2.3a4.85,4.85,0,0,0,1.51-.32l.43,1.52a8.64,8.64,0,0,1-2.45.45C402.5,434.57,401.54,433,401.54,430.59Z" transform="translate(-35 -54.76)" fill="#fff"/><path d="M409,428.33a6,6,0,0,1,5.95-6.27c3.38,0,5.29,2.18,5.29,5.59a5.4,5.4,0,0,1-.11,1.15h-8.91A4.18,4.18,0,0,0,415.6,433a6.25,6.25,0,0,0,3.3-.95l.8,1.32a8.41,8.41,0,0,1-4.37,1.24A6,6,0,0,1,409,428.33Zm9.26-1c0-2.39-1.2-3.69-3.27-3.69a3.86,3.86,0,0,0-3.79,3.69Z" transform="translate(-35 -54.76)" fill="#fff"/><path d="M422,422.35h2.29l2,6.89c.29,1.13.54,2.2.79,3.32h.11c.28-1.12.57-2.21.9-3.32l2-6.89h2.19l2.06,6.89c.33,1.13.62,2.2.92,3.32h.11c.29-1.12.54-2.19.82-3.32l1.93-6.89h2.14l-3.56,11.92H434l-1.91-6.4c-.32-1.13-.58-2.23-.9-3.44h-.11c-.28,1.21-.55,2.34-.91,3.47l-1.85,6.37h-2.62Z" transform="translate(-35 -54.76)" fill="#fff"/><path d="M442.08,431.18c0-2.6,2.49-3.9,8.13-4.45,0-1.53-.57-3-2.73-3a7.78,7.78,0,0,0-4,1.28l-.88-1.39a10.46,10.46,0,0,1,5.2-1.55c3.23,0,4.6,1.93,4.6,4.9v7.31H450.6l-.19-1.42h-.07a7.47,7.47,0,0,1-4.38,1.72C443.74,434.57,442.08,433.33,442.08,431.18Zm8.13.18v-3.31c-4.44.48-5.94,1.46-5.94,3,0,1.35,1,1.9,2.32,1.9A5.71,5.71,0,0,0,450.21,431.36Z" transform="translate(-35 -54.76)" fill="#fff"/><path d="M455.3,439.16l.44-1.6a3.73,3.73,0,0,0,1,.17c1.49,0,2.43-1.07,3-2.55l.3-.89-5.31-11.94H457l2.7,6.6c.42,1,.86,2.26,1.29,3.36h.11c.37-1.09.75-2.31,1.11-3.36l2.36-6.6h2.2l-5,12.9c-.94,2.37-2.3,4.16-5,4.16A4.57,4.57,0,0,1,455.3,439.16Z" transform="translate(-35 -54.76)" fill="#fff"/><path d="M475.18,430.59V424h-2v-1.53l2.07-.12.27-3.34h1.87v3.34H481V424h-3.59v6.62c0,1.46.52,2.3,2.05,2.3a4.85,4.85,0,0,0,1.51-.32l.43,1.52a8.64,8.64,0,0,1-2.45.45C476.14,434.57,475.18,433,475.18,430.59Z" transform="translate(-35 -54.76)" fill="#fff"/><path d="M482.63,428.33a6.14,6.14,0,1,1,6.14,6.24A6,6,0,0,1,482.63,428.33Zm10,0c0-2.73-1.55-4.59-3.82-4.59S485,425.6,485,428.33s1.54,4.56,3.82,4.56S492.59,431.06,492.59,428.33Z" transform="translate(-35 -54.76)" fill="#fff"/><path d="M368.71,447.59H371v16.1h-2.27Z" transform="translate(-35 -54.76)" fill="#fff"/><path d="M375.66,451.77h1.85l.19,1.72h.07a6.62,6.62,0,0,1,4.45-2c2.79,0,4,1.63,4,4.67v7.55H384V456.4c0-2.22-.75-3.17-2.5-3.17-1.35,0-2.29.62-3.62,1.83v8.63h-2.24Z" transform="translate(-35 -54.76)" fill="#fff"/><path d="M389.09,462.33l1.1-1.33a6.36,6.36,0,0,0,3.91,1.41c1.74,0,2.6-.83,2.6-1.85,0-1.23-1.56-1.77-3-2.26-1.86-.61-3.95-1.43-3.95-3.44s1.7-3.39,4.56-3.39a7.18,7.18,0,0,1,4.12,1.34l-1.07,1.3a5.28,5.28,0,0,0-3-1.06c-1.67,0-2.44.8-2.44,1.7,0,1.14,1.44,1.57,2.94,2.07,1.91.65,4,1.35,4,3.62,0,1.93-1.71,3.54-4.83,3.54A8.45,8.45,0,0,1,389.09,462.33Z" transform="translate(-35 -54.76)" fill="#fff"/><path d="M401.82,460v-6.59h-2v-1.53l2.07-.11.27-3.34h1.87v3.34h3.58v1.64h-3.58V460c0,1.46.52,2.3,2,2.3a4.85,4.85,0,0,0,1.51-.32l.43,1.52a8.57,8.57,0,0,1-2.45.44C402.77,464,401.82,462.38,401.82,460Z" transform="translate(-35 -54.76)" fill="#fff"/><path d="M410.63,451.77h1.85l.19,2.17h.07a4.58,4.58,0,0,1,3.77-2.47,3.36,3.36,0,0,1,1.41.25l-.42,1.77a4,4,0,0,0-1.28-.2c-1.12,0-2.46.73-3.35,2.75v7.65h-2.24Z" transform="translate(-35 -54.76)" fill="#fff"/><path d="M419.9,459.32v-7.55h2.24v7.29c0,2.22.75,3.17,2.5,3.17,1.35,0,2.29-.6,3.54-2v-8.45h2.24v11.92h-1.85l-.19-1.87h-.07a5.82,5.82,0,0,1-4.37,2.16C421.15,464,419.9,462.36,419.9,459.32Z" transform="translate(-35 -54.76)" fill="#fff"/><path d="M434.89,451.77h1.85l.19,1.73H437a6.09,6.09,0,0,1,4.12-2,3.48,3.48,0,0,1,3.65,2.28c1.38-1.34,2.76-2.28,4.37-2.28,2.72,0,4,1.63,4,4.67v7.55h-2.24V456.4c0-2.22-.78-3.17-2.47-3.17a5,5,0,0,0-3.31,1.83v8.63h-2.24V456.4c0-2.22-.78-3.17-2.47-3.17a5,5,0,0,0-3.32,1.83v8.63h-2.24Z" transform="translate(-35 -54.76)" fill="#fff"/><path d="M456.49,457.74a6,6,0,0,1,5.95-6.27c3.37,0,5.28,2.19,5.28,5.6a6.11,6.11,0,0,1-.1,1.14H458.7a4.19,4.19,0,0,0,4.4,4.17,6.16,6.16,0,0,0,3.29-1l.81,1.33a8.45,8.45,0,0,1-4.38,1.23A6,6,0,0,1,456.49,457.74Zm9.25-1c0-2.39-1.19-3.69-3.26-3.69a3.87,3.87,0,0,0-3.8,3.69Z" transform="translate(-35 -54.76)" fill="#fff"/><path d="M471,451.77h1.85l.19,1.72h.07a6.57,6.57,0,0,1,4.44-2c2.79,0,4.05,1.63,4.05,4.67v7.55h-2.25V456.4c0-2.22-.74-3.17-2.49-3.17-1.36,0-2.29.62-3.62,1.83v8.63H471Z" transform="translate(-35 -54.76)" fill="#fff"/><path d="M486.27,460v-6.59h-2v-1.53l2.07-.11.27-3.34h1.87v3.34h3.58v1.64h-3.58V460c0,1.46.52,2.3,2,2.3a4.85,4.85,0,0,0,1.51-.32l.44,1.52A8.7,8.7,0,0,1,490,464C487.22,464,486.27,462.38,486.27,460Z" transform="translate(-35 -54.76)" fill="#fff"/><path d="M493.34,462.33l1.1-1.33a6.36,6.36,0,0,0,3.91,1.41c1.74,0,2.6-.83,2.6-1.85,0-1.23-1.56-1.77-3-2.26-1.86-.61-3.95-1.43-3.95-3.44s1.69-3.39,4.56-3.39a7.2,7.2,0,0,1,4.12,1.34l-1.07,1.3a5.28,5.28,0,0,0-3-1.06c-1.67,0-2.44.8-2.44,1.7,0,1.14,1.44,1.57,2.94,2.07,1.91.65,4,1.35,4,3.62,0,1.93-1.71,3.54-4.83,3.54A8.45,8.45,0,0,1,493.34,462.33Z" transform="translate(-35 -54.76)" fill="#fff"/><rect x="399.8" y="230.65" width="266.58" height="82.67" rx="12" fill="#072660"/><path d="M463.4,317.29h2.27v16.09H463.4Z" transform="translate(-35 -54.76)" fill="#fff"/><path d="M470.63,321.46h1.85l.19,1.72h.07a6.56,6.56,0,0,1,4.44-2c2.79,0,4,1.62,4,4.66v7.55H479v-7.29c0-2.22-.74-3.17-2.49-3.17-1.36,0-2.3.62-3.62,1.83v8.63h-2.24Z" transform="translate(-35 -54.76)" fill="#fff"/><path d="M484.85,327.44c0-3.87,2.71-6.27,5.73-6.27a5.74,5.74,0,0,1,3.71,1.38l-.09-2v-4.6h2.24v17.47h-1.86l-.18-1.4h-.08a6.18,6.18,0,0,1-4,1.7C487,333.68,484.85,331.41,484.85,327.44Zm9.35,2.91V324.1a5,5,0,0,0-3.23-1.23c-2.12,0-3.8,1.83-3.8,4.55s1.31,4.56,3.63,4.56A4.79,4.79,0,0,0,494.2,330.35Z" transform="translate(-35 -54.76)" fill="#fff"/><path d="M500.77,317.71a1.57,1.57,0,0,1,3.1,0,1.57,1.57,0,0,1-3.1,0Zm.41,3.75h2.24v11.92h-2.24Z" transform="translate(-35 -54.76)" fill="#fff"/><path d="M506.25,321.46h2.31l2.5,6.77c.39,1.17.82,2.38,1.22,3.52h.11c.39-1.14.82-2.35,1.22-3.52l2.5-6.77h2.2l-4.68,11.92H511Z" transform="translate(-35 -54.76)" fill="#fff"/><path d="M520.73,317.71a1.57,1.57,0,0,1,3.1,0,1.57,1.57,0,0,1-3.1,0Zm.41,3.75h2.24v11.92h-2.24Z" transform="translate(-35 -54.76)" fill="#fff"/><path d="M527.17,327.44c0-3.87,2.71-6.27,5.73-6.27a5.74,5.74,0,0,1,3.71,1.38l-.09-2v-4.6h2.24v17.47h-1.85l-.19-1.4h-.08a6.18,6.18,0,0,1-4,1.7C529.32,333.68,527.17,331.41,527.17,327.44Zm9.35,2.91V324.1a5,5,0,0,0-3.23-1.23c-2.12,0-3.8,1.83-3.8,4.55s1.31,4.56,3.63,4.56A4.77,4.77,0,0,0,536.52,330.35Z" transform="translate(-35 -54.76)" fill="#fff"/><path d="M543.32,329v-7.56h2.24v7.29c0,2.23.75,3.18,2.5,3.18,1.36,0,2.29-.61,3.55-2v-8.46h2.24v11.92H552l-.19-1.86h-.08a5.8,5.8,0,0,1-4.36,2.16C544.58,333.68,543.32,332.06,543.32,329Z" transform="translate(-35 -54.76)" fill="#fff"/><path d="M557.77,330.29c0-2.6,2.49-3.9,8.13-4.45,0-1.53-.57-3-2.73-3a7.78,7.78,0,0,0-3.95,1.28l-.88-1.38a10.36,10.36,0,0,1,5.2-1.56c3.23,0,4.6,1.93,4.6,4.9v7.31h-1.85L566.1,332H566a7.5,7.5,0,0,1-4.38,1.72C559.43,333.68,557.77,332.44,557.77,330.29Zm8.13.18v-3.31c-4.44.48-5.94,1.46-5.94,3,0,1.35,1,1.9,2.32,1.9A5.71,5.71,0,0,0,565.9,330.47Z" transform="translate(-35 -54.76)" fill="#fff"/><path d="M572.59,331V315.91h2.24v15.23c0,.61.3.86.62.86a2.08,2.08,0,0,0,.49-.05l.31,1.54a4.09,4.09,0,0,1-1.29.19C573.28,333.68,572.59,332.71,572.59,331Z" transform="translate(-35 -54.76)" fill="#fff"/><path d="M585.73,317.29H588v14.36h7.8v1.73H585.73Z" transform="translate(-35 -54.76)" fill="#fff"/><path d="M597.72,327.44a6,6,0,0,1,5.95-6.27c3.38,0,5.29,2.18,5.29,5.59a5.4,5.4,0,0,1-.11,1.15h-8.92a4.19,4.19,0,0,0,4.4,4.16,6.28,6.28,0,0,0,3.3-.95l.8,1.32a8.41,8.41,0,0,1-4.37,1.24A6,6,0,0,1,597.72,327.44Zm9.26-1c0-2.39-1.2-3.68-3.27-3.68a3.86,3.86,0,0,0-3.8,3.68Z" transform="translate(-35 -54.76)" fill="#fff"/><path d="M611,332l1.1-1.33a6.31,6.31,0,0,0,3.91,1.42c1.74,0,2.6-.84,2.6-1.86,0-1.22-1.56-1.76-3-2.25-1.85-.62-4-1.44-4-3.45s1.7-3.38,4.57-3.38a7.2,7.2,0,0,1,4.12,1.34l-1.07,1.29a5.31,5.31,0,0,0-3-1.06c-1.67,0-2.44.8-2.44,1.71,0,1.13,1.44,1.56,2.94,2.07,1.91.65,4,1.34,4,3.61,0,1.94-1.71,3.55-4.83,3.55A8.43,8.43,0,0,1,611,332Z" transform="translate(-35 -54.76)" fill="#fff"/><path d="M622.7,332l1.1-1.33a6.31,6.31,0,0,0,3.91,1.42c1.74,0,2.6-.84,2.6-1.86,0-1.22-1.56-1.76-3-2.25-1.86-.62-3.95-1.44-3.95-3.45s1.69-3.38,4.56-3.38a7.2,7.2,0,0,1,4.12,1.34L631,323.8a5.28,5.28,0,0,0-3-1.06c-1.67,0-2.44.8-2.44,1.71,0,1.13,1.44,1.56,2.94,2.07,1.91.65,4,1.34,4,3.61,0,1.94-1.71,3.55-4.83,3.55A8.46,8.46,0,0,1,622.7,332Z" transform="translate(-35 -54.76)" fill="#fff"/><path d="M634.87,327.44a6.14,6.14,0,1,1,6.13,6.24A6,6,0,0,1,634.87,327.44Zm10,0c0-2.73-1.54-4.59-3.82-4.59s-3.82,1.86-3.82,4.59S638.72,332,641,332,644.82,330.17,644.82,327.44Z" transform="translate(-35 -54.76)" fill="#fff"/><path d="M650.88,321.46h1.85l.19,1.72H653a6.56,6.56,0,0,1,4.44-2c2.79,0,4,1.62,4,4.66v7.55h-2.24v-7.29c0-2.22-.75-3.17-2.5-3.17-1.35,0-2.29.62-3.62,1.83v8.63h-2.24Z" transform="translate(-35 -54.76)" fill="#fff"/><path d="M664.58,332l1.11-1.33a6.31,6.31,0,0,0,3.91,1.42c1.74,0,2.6-.84,2.6-1.86,0-1.22-1.56-1.76-3-2.25-1.85-.62-3.95-1.44-3.95-3.45s1.7-3.38,4.57-3.38a7.2,7.2,0,0,1,4.12,1.34l-1.08,1.29a5.25,5.25,0,0,0-3-1.06c-1.67,0-2.44.8-2.44,1.71,0,1.13,1.44,1.56,2.94,2.07,1.91.65,4,1.34,4,3.61,0,1.94-1.7,3.55-4.83,3.55A8.48,8.48,0,0,1,664.58,332Z" transform="translate(-35 -54.76)" fill="#fff"/><rect x="764.47" y="230.97" width="261.25" height="81.02" rx="12" fill="none" stroke="#072660" stroke-miterlimit="10" stroke-width="3"/><path d="M876.6,317h10.1v1.7h-7.87v4.94h6.64v1.7h-6.64v5.73H887v1.69H876.6Z" transform="translate(-35 -54.76)" fill="#072660"/><path d="M890.73,321.07h1.81l.19,1.68h.07a6.48,6.48,0,0,1,4.35-2c2.74,0,4,1.59,4,4.57v7.39h-2.19V325.6c0-2.17-.73-3.1-2.45-3.1-1.33,0-2.24.61-3.55,1.79v8.45h-2.19Z" transform="translate(-35 -54.76)" fill="#072660"/><path d="M904.16,331.41l1.08-1.3a6.19,6.19,0,0,0,3.83,1.38c1.7,0,2.55-.81,2.55-1.81,0-1.2-1.53-1.73-3-2.21-1.82-.6-3.87-1.41-3.87-3.38s1.66-3.31,4.48-3.31a7.09,7.09,0,0,1,4,1.31l-1,1.27a5.15,5.15,0,0,0-3-1c-1.63,0-2.39.78-2.39,1.67,0,1.11,1.41,1.54,2.88,2,1.87.63,4,1.32,4,3.54,0,1.89-1.67,3.47-4.73,3.47A8.28,8.28,0,0,1,904.16,331.41Z" transform="translate(-35 -54.76)" fill="#072660"/><path d="M916.08,326.92a5.88,5.88,0,0,1,5.83-6.14c3.31,0,5.18,2.14,5.18,5.48a5.88,5.88,0,0,1-.1,1.12h-8.74a4.11,4.11,0,0,0,4.31,4.08,6,6,0,0,0,3.23-.94l.79,1.3a8.23,8.23,0,0,1-4.29,1.21A5.87,5.87,0,0,1,916.08,326.92Zm9.07-.95c0-2.34-1.17-3.62-3.2-3.62a3.79,3.79,0,0,0-3.72,3.62Z" transform="translate(-35 -54.76)" fill="#072660"/><path d="M930.55,321.07h1.81l.19,1.69h.07a6,6,0,0,1,4-2,3.42,3.42,0,0,1,3.58,2.23c1.35-1.32,2.7-2.23,4.28-2.23,2.66,0,3.94,1.59,3.94,4.57v7.39h-2.19V325.6c0-2.17-.77-3.1-2.42-3.1a4.88,4.88,0,0,0-3.25,1.79v8.45h-2.19V325.6c0-2.17-.77-3.1-2.42-3.1a4.94,4.94,0,0,0-3.25,1.79v8.45h-2.19Z" transform="translate(-35 -54.76)" fill="#072660"/><path d="M955,331.54h-.07l-.21,1.2h-1.75V315.63h2.19v4.68l-.07,2.1a6.94,6.94,0,0,1,4.08-1.63c3.35,0,5.15,2.34,5.15,5.94,0,4-2.65,6.31-5.62,6.31A6.14,6.14,0,0,1,955,331.54Zm7-4.79c0-2.58-1-4.31-3.42-4.31a5.52,5.52,0,0,0-3.47,1.6v6.12a5.39,5.39,0,0,0,3.16,1.21C960.44,331.37,962,329.63,962,326.75Z" transform="translate(-35 -54.76)" fill="#072660"/><path d="M967.86,330.4V315.63h2.19v14.91c0,.61.3.85.62.85a2.05,2.05,0,0,0,.48-.05l.3,1.51a4,4,0,0,1-1.27.18C968.54,333,967.86,332.09,967.86,330.4Z" transform="translate(-35 -54.76)" fill="#072660"/><path d="M974,326.92a5.88,5.88,0,0,1,5.83-6.14c3.31,0,5.18,2.14,5.18,5.48a5.11,5.11,0,0,1-.11,1.12h-8.73a4.1,4.1,0,0,0,4.31,4.08,6.05,6.05,0,0,0,3.23-.94l.78,1.3a8.19,8.19,0,0,1-4.28,1.21A5.87,5.87,0,0,1,974,326.92ZM983,326c0-2.34-1.17-3.62-3.2-3.62a3.79,3.79,0,0,0-3.72,3.62Z" transform="translate(-35 -54.76)" fill="#072660"/><rect x="764.47" y="338.77" width="261.25" height="81.02" rx="12" fill="none" stroke="#072660" stroke-miterlimit="10" stroke-width="3"/><path d="M858.31,424.78H861l3.36,8.42c.42,1.08.82,2.19,1.24,3.29h.11c.42-1.1.79-2.21,1.21-3.29l3.32-8.42h2.68v15.76h-2.07v-8.68c0-1.37.17-3.26.28-4.66H871l-1.39,3.6-3.3,8.15h-1.48l-3.31-8.15-1.39-3.6H860c.11,1.4.29,3.29.29,4.66v8.68h-2Z" transform="translate(-35 -54.76)" fill="#072660"/><path d="M877.6,436.27v-7.4h2.19V436c0,2.18.73,3.11,2.45,3.11,1.33,0,2.25-.59,3.47-2v-8.28h2.2v11.67H886.1l-.19-1.82h-.07a5.72,5.72,0,0,1-4.28,2.11C878.83,440.83,877.6,439.25,877.6,436.27Z" transform="translate(-35 -54.76)" fill="#072660"/><path d="M891.12,439.21l1.08-1.3a6.19,6.19,0,0,0,3.83,1.38c1.7,0,2.55-.81,2.55-1.81,0-1.2-1.53-1.73-3-2.21-1.81-.6-3.86-1.41-3.86-3.38s1.66-3.31,4.47-3.31a7.06,7.06,0,0,1,4,1.31l-1,1.27a5.15,5.15,0,0,0-3-1c-1.63,0-2.38.78-2.38,1.67,0,1.11,1.41,1.54,2.88,2,1.87.63,4,1.32,4,3.54,0,1.89-1.67,3.47-4.73,3.47A8.31,8.31,0,0,1,891.12,439.21Z" transform="translate(-35 -54.76)" fill="#072660"/><path d="M903.6,425.19a1.54,1.54,0,0,1,3,0,1.54,1.54,0,0,1-3,0Zm.41,3.68h2.19v11.67H904Z" transform="translate(-35 -54.76)" fill="#072660"/><path d="M909.87,434.72a6,6,0,0,1,6.25-6.14,5.75,5.75,0,0,1,3.79,1.37l-1.12,1.31a4,4,0,0,0-2.58-1c-2.34,0-4.07,1.82-4.07,4.49s1.63,4.47,4,4.47a4.92,4.92,0,0,0,3-1.17l.95,1.33a6.7,6.7,0,0,1-4.19,1.48A5.76,5.76,0,0,1,909.87,434.72Z" transform="translate(-35 -54.76)" fill="#072660"/><path d="M922.87,425.19a1.54,1.54,0,0,1,3,0,1.54,1.54,0,0,1-3,0Zm.41,3.68h2.19v11.67h-2.19Z" transform="translate(-35 -54.76)" fill="#072660"/><path d="M929.3,437.51c0-2.54,2.44-3.81,8-4.35,0-1.5-.56-3-2.68-3a7.62,7.62,0,0,0-3.86,1.25l-.86-1.35a10.15,10.15,0,0,1,5.09-1.53c3.17,0,4.51,1.89,4.51,4.8v7.16h-1.82l-.18-1.39h-.08a7.3,7.3,0,0,1-4.29,1.68C930.93,440.83,929.3,439.62,929.3,437.51Zm8,.19v-3.25c-4.35.47-5.82,1.43-5.82,2.92,0,1.33,1,1.87,2.28,1.87A5.61,5.61,0,0,0,937.27,437.7Z" transform="translate(-35 -54.76)" fill="#072660"/><path d="M943.83,428.87h1.81l.18,1.68h.08a6.46,6.46,0,0,1,4.35-2c2.73,0,4,1.59,4,4.57v7.39H952V433.4c0-2.17-.73-3.1-2.44-3.1-1.33,0-2.25.61-3.55,1.79v8.45h-2.19Z" transform="translate(-35 -54.76)" fill="#072660"/><path d="M957.25,439.21l1.09-1.3a6.17,6.17,0,0,0,3.83,1.38c1.7,0,2.54-.81,2.54-1.81,0-1.2-1.53-1.73-3-2.21-1.82-.6-3.87-1.41-3.87-3.38s1.66-3.31,4.47-3.31a7.1,7.1,0,0,1,4,1.31l-1,1.27a5.18,5.18,0,0,0-3-1c-1.63,0-2.39.78-2.39,1.67,0,1.11,1.41,1.54,2.88,2,1.87.63,4,1.32,4,3.54,0,1.89-1.67,3.47-4.74,3.47A8.31,8.31,0,0,1,957.25,439.21Z" transform="translate(-35 -54.76)" fill="#072660"/><path d="M970.14,423.43h2.2v4.68l-.08,2.4a6.44,6.44,0,0,1,4.3-1.93c2.74,0,4,1.59,4,4.57v7.39h-2.2V433.4c0-2.17-.73-3.1-2.45-3.1-1.32,0-2.24.61-3.54,1.79v8.45h-2.2Z" transform="translate(-35 -54.76)" fill="#072660"/><path d="M984.52,425.19a1.54,1.54,0,0,1,3,0,1.54,1.54,0,0,1-3,0Zm.41,3.68h2.19v11.67h-2.19Z" transform="translate(-35 -54.76)" fill="#072660"/><path d="M991.76,428.87h1.81l.19,1.35h.07a7.18,7.18,0,0,1,4.14-1.64c3.35,0,5.14,2.34,5.14,5.95,0,4-2.66,6.3-5.62,6.3a6.27,6.27,0,0,1-3.6-1.35l.06,2v4h-2.19Zm9.08,5.68c0-2.58-1-4.31-3.42-4.31a5.59,5.59,0,0,0-3.47,1.6V438a5.43,5.43,0,0,0,3.16,1.21C999.26,439.17,1000.84,437.43,1000.84,434.55Z" transform="translate(-35 -54.76)" fill="#072660"/><rect x="764.47" y="440.69" width="261.25" height="81.02" rx="12" fill="none" stroke="#072660" stroke-miterlimit="10" stroke-width="3"/><path d="M867.62,526.7h2.3l1.84,8.58c.34,1.7.69,3.39,1,5.08h.11c.39-1.69.81-3.39,1.23-5.08l2.43-8.58h2l2.43,8.58c.43,1.67.85,3.38,1.27,5.08h.11c.33-1.7.65-3.4,1-5.08l1.84-8.58h2.15l-3.63,15.76h-2.68L878.4,533c-.3-1.23-.58-2.38-.84-3.59h-.11c-.27,1.21-.57,2.36-.88,3.59L874,542.46h-2.64Z" transform="translate(-35 -54.76)" fill="#072660"/><path d="M889.48,536.64a6,6,0,1,1,6,6.11A5.86,5.86,0,0,1,889.48,536.64Zm9.76,0c0-2.67-1.51-4.49-3.74-4.49s-3.75,1.82-3.75,4.49,1.51,4.47,3.75,4.47S899.24,539.32,899.24,536.64Z" transform="translate(-35 -54.76)" fill="#072660"/><path d="M905.18,530.79H907l.19,2.13h.07a4.47,4.47,0,0,1,3.69-2.42,3.43,3.43,0,0,1,1.39.24l-.41,1.73a4.21,4.21,0,0,0-1.26-.19c-1.1,0-2.41.71-3.28,2.69v7.49h-2.2Z" transform="translate(-35 -54.76)" fill="#072660"/><path d="M914.71,525.35h2.15v11.59h.08l5.53-6.15h2.44l-4.35,4.69,4.92,7h-2.4l-3.78-5.61-2.44,2.55v3.06h-2.15Z" transform="translate(-35 -54.76)" fill="#072660"/><path d="M926.75,541.13l1.08-1.3a6.19,6.19,0,0,0,3.83,1.38c1.7,0,2.55-.81,2.55-1.81,0-1.2-1.53-1.73-3-2.21-1.82-.6-3.87-1.41-3.87-3.38s1.67-3.31,4.48-3.31a7.06,7.06,0,0,1,4,1.31l-1,1.27a5.15,5.15,0,0,0-3-1c-1.63,0-2.39.78-2.39,1.67,0,1.11,1.42,1.54,2.88,2,1.88.63,4,1.32,4,3.54,0,1.89-1.67,3.47-4.73,3.47A8.28,8.28,0,0,1,926.75,541.13Z" transform="translate(-35 -54.76)" fill="#072660"/><path d="M939.63,525.35h2.2V530l-.08,2.4a6.46,6.46,0,0,1,4.31-1.93c2.73,0,4,1.59,4,4.57v7.39h-2.2v-7.14c0-2.17-.73-3.1-2.44-3.1-1.33,0-2.25.61-3.55,1.79v8.45h-2.2Z" transform="translate(-35 -54.76)" fill="#072660"/><path d="M953.46,536.64a6,6,0,1,1,6,6.11A5.86,5.86,0,0,1,953.46,536.64Zm9.75,0c0-2.67-1.51-4.49-3.74-4.49s-3.75,1.82-3.75,4.49,1.52,4.47,3.75,4.47S963.21,539.32,963.21,536.64Z" transform="translate(-35 -54.76)" fill="#072660"/><path d="M969.15,530.79H971l.18,1.35h.07a7.24,7.24,0,0,1,4.14-1.64c3.35,0,5.14,2.34,5.14,6,0,4-2.65,6.3-5.62,6.3a6.25,6.25,0,0,1-3.59-1.35l.06,2v3.95h-2.2Zm9.09,5.68c0-2.58-1-4.31-3.42-4.31a5.59,5.59,0,0,0-3.47,1.6v6.12a5.41,5.41,0,0,0,3.16,1.21C976.65,541.09,978.24,539.35,978.24,536.47Z" transform="translate(-35 -54.76)" fill="#072660"/><path d="M982.74,541.13l1.08-1.3a6.19,6.19,0,0,0,3.83,1.38c1.71,0,2.55-.81,2.55-1.81,0-1.2-1.53-1.73-3-2.21-1.81-.6-3.86-1.41-3.86-3.38s1.66-3.31,4.47-3.31a7,7,0,0,1,4,1.31l-1,1.27a5.15,5.15,0,0,0-3-1c-1.64,0-2.39.78-2.39,1.67,0,1.11,1.41,1.54,2.88,2,1.87.63,3.95,1.32,3.95,3.54,0,1.89-1.67,3.47-4.73,3.47A8.31,8.31,0,0,1,982.74,541.13Z" transform="translate(-35 -54.76)" fill="#072660"/><rect x="532.8" y="115" width="266.58" height="82.67" rx="12" fill="#072660"/><path d="M592.73,215.46l1.61-1a3.43,3.43,0,0,0,3.1,1.8c1.9,0,2.85-1,2.85-3.42V201.64h2.28V213c0,2.79-1.43,5-4.93,5A5.34,5.34,0,0,1,592.73,215.46Z" transform="translate(-35 -54.76)" fill="#fff"/><path d="M606.63,214.64c0-2.6,2.49-3.89,8.13-4.45,0-1.53-.57-3-2.73-3a7.88,7.88,0,0,0-3.95,1.28l-.87-1.38a10.39,10.39,0,0,1,5.2-1.56c3.23,0,4.59,1.94,4.59,4.9v7.32h-1.85l-.19-1.43h-.07a7.41,7.41,0,0,1-4.38,1.72C608.29,218,606.63,216.79,606.63,214.64Zm8.13.19v-3.31c-4.43.48-5.93,1.46-5.93,3,0,1.35,1,1.91,2.32,1.91A5.68,5.68,0,0,0,614.76,214.83Z" transform="translate(-35 -54.76)" fill="#fff"/><path d="M620.06,216.66l7-9.2h-6.19v-1.64h9v1.08l-7,9.19h7.2v1.65h-10Z" transform="translate(-35 -54.76)" fill="#fff"/><path d="M631.91,216.66l7-9.2h-6.2v-1.64h9v1.08l-7,9.19h7.19v1.65h-10Z" transform="translate(-35 -54.76)" fill="#fff"/><path d="M651.07,201.64h2.28v16.1h-2.28Z" transform="translate(-35 -54.76)" fill="#fff"/><path d="M658.3,205.82h1.85l.19,1.72h.07a6.12,6.12,0,0,1,4.12-2,3.5,3.5,0,0,1,3.66,2.27c1.37-1.34,2.75-2.27,4.36-2.27,2.72,0,4,1.62,4,4.66v7.56h-2.24v-7.3c0-2.22-.78-3.17-2.46-3.17a5,5,0,0,0-3.32,1.83v8.64h-2.24v-7.3c0-2.22-.78-3.17-2.47-3.17a5.05,5.05,0,0,0-3.31,1.83v8.64H658.3Z" transform="translate(-35 -54.76)" fill="#fff"/><path d="M681.15,205.82H683l.19,1.37h.07a7.41,7.41,0,0,1,4.22-1.67c3.42,0,5.25,2.39,5.25,6.08,0,4.06-2.71,6.43-5.73,6.43a6.33,6.33,0,0,1-3.67-1.38l.06,2.08v4h-2.24Zm9.27,5.79c0-2.63-1-4.39-3.5-4.39a5.62,5.62,0,0,0-3.53,1.63v6.24a5.43,5.43,0,0,0,3.22,1.24C688.8,216.33,690.42,214.56,690.42,211.61Z" transform="translate(-35 -54.76)" fill="#fff"/><path d="M696.53,205.82h1.85l.19,2.17h.08a4.57,4.57,0,0,1,3.76-2.47,3.3,3.3,0,0,1,1.41.25l-.41,1.77a4.1,4.1,0,0,0-1.29-.2c-1.12,0-2.45.73-3.35,2.74v7.66h-2.24Z" transform="translate(-35 -54.76)" fill="#fff"/><path d="M705,211.79a6.14,6.14,0,1,1,6.13,6.24A6,6,0,0,1,705,211.79Zm10,0c0-2.73-1.54-4.59-3.82-4.59s-3.82,1.86-3.82,4.59,1.55,4.56,3.82,4.56S715,214.52,715,211.79Z" transform="translate(-35 -54.76)" fill="#fff"/><path d="M719,205.82h2.31l2.5,6.77L725,216.1h.11c.4-1.13.83-2.35,1.22-3.51l2.51-6.77h2.19l-4.68,11.92h-2.6Z" transform="translate(-35 -54.76)" fill="#fff"/><path d="M733.49,202.06a1.57,1.57,0,0,1,3.09,0,1.57,1.57,0,0,1-3.09,0Zm.41,3.76h2.24v11.92H733.9Z" transform="translate(-35 -54.76)" fill="#fff"/><path d="M739.4,216.38l1.11-1.33a6.33,6.33,0,0,0,3.9,1.41c1.74,0,2.61-.83,2.61-1.85,0-1.23-1.57-1.77-3-2.26-1.86-.61-4-1.43-4-3.44s1.7-3.39,4.57-3.39a7.17,7.17,0,0,1,4.11,1.34l-1.07,1.29a5.36,5.36,0,0,0-3-1.06c-1.67,0-2.44.8-2.44,1.71,0,1.14,1.44,1.57,2.94,2.07,1.91.65,4,1.35,4,3.62,0,1.93-1.71,3.54-4.83,3.54A8.52,8.52,0,0,1,739.4,216.38Z" transform="translate(-35 -54.76)" fill="#fff"/><path d="M751.73,214.64c0-2.6,2.49-3.89,8.13-4.45,0-1.53-.57-3-2.73-3a7.88,7.88,0,0,0-4,1.28l-.88-1.38a10.46,10.46,0,0,1,5.2-1.56c3.24,0,4.6,1.94,4.6,4.9v7.32h-1.85l-.19-1.43H760a7.41,7.41,0,0,1-4.38,1.72C753.39,218,751.73,216.79,751.73,214.64Zm8.13.19v-3.31c-4.43.48-5.93,1.46-5.93,3,0,1.35,1,1.91,2.32,1.91A5.7,5.7,0,0,0,759.86,214.83Z" transform="translate(-35 -54.76)" fill="#fff"/><path d="M766.56,214.05v-6.59h-2v-1.53l2.07-.11.27-3.35h1.87v3.35h3.59v1.64H768.8v6.63c0,1.45.52,2.3,2.05,2.3a4.85,4.85,0,0,0,1.51-.32l.43,1.52a8.64,8.64,0,0,1-2.46.44C767.51,218,766.56,216.42,766.56,214.05Z" transform="translate(-35 -54.76)" fill="#fff"/><path d="M775.24,202.06a1.57,1.57,0,0,1,3.09,0,1.57,1.57,0,0,1-3.09,0Zm.41,3.76h2.24v11.92h-2.24Z" transform="translate(-35 -54.76)" fill="#fff"/><path d="M781.63,211.79a6.14,6.14,0,1,1,6.14,6.24A6,6,0,0,1,781.63,211.79Zm10,0c0-2.73-1.54-4.59-3.82-4.59s-3.82,1.86-3.82,4.59,1.54,4.56,3.82,4.56S791.59,214.52,791.59,211.79Z" transform="translate(-35 -54.76)" fill="#fff"/><path d="M797.65,205.82h1.85l.19,1.72h.07a6.62,6.62,0,0,1,4.45-2c2.79,0,4,1.62,4,4.66v7.56H806v-7.3c0-2.22-.75-3.17-2.5-3.17-1.35,0-2.29.63-3.62,1.83v8.64h-2.24Z" transform="translate(-35 -54.76)" fill="#fff"/><rect x="665.8" width="266.58" height="82.67" rx="12" fill="#072660"/><path d="M755.41,86.64h2.74l3.42,8.6c.43,1.1.84,2.24,1.27,3.36H763c.43-1.12.81-2.26,1.24-3.36l3.39-8.6h2.74v16.1H768.2V93.88c0-1.41.18-3.34.29-4.76h-.11L767,92.79l-3.36,8.32h-1.51l-3.39-8.32-1.41-3.67h-.11c.11,1.42.29,3.35.29,4.76v8.86h-2.06Z" transform="translate(-35 -54.76)" fill="#fff"/><path d="M774.86,87.06a1.57,1.57,0,0,1,3.1,0,1.57,1.57,0,0,1-3.1,0Zm.41,3.76h2.24v11.92h-2.24Z" transform="translate(-35 -54.76)" fill="#fff"/><path d="M781.26,96.79a6.08,6.08,0,0,1,6.37-6.27,5.89,5.89,0,0,1,3.87,1.4l-1.14,1.34a4.06,4.06,0,0,0-2.63-1.06c-2.4,0-4.16,1.86-4.16,4.59s1.66,4.56,4.1,4.56a5.05,5.05,0,0,0,3.11-1.19l1,1.36a6.87,6.87,0,0,1-4.28,1.51A5.87,5.87,0,0,1,781.26,96.79Z" transform="translate(-35 -54.76)" fill="#fff"/><path d="M794.93,90.82h1.85L797,93h.08a4.57,4.57,0,0,1,3.76-2.47,3.3,3.3,0,0,1,1.41.25l-.41,1.77a4.1,4.1,0,0,0-1.29-.2c-1.12,0-2.45.73-3.35,2.74v7.66h-2.24Z" transform="translate(-35 -54.76)" fill="#fff"/><path d="M803.4,96.79a6.14,6.14,0,1,1,6.13,6.24A6,6,0,0,1,803.4,96.79Zm10,0c0-2.73-1.54-4.59-3.82-4.59s-3.82,1.86-3.82,4.59,1.55,4.56,3.82,4.56S813.35,99.52,813.35,96.79Z" transform="translate(-35 -54.76)" fill="#fff"/><path d="M824.2,94.7c0-5.19,3.39-8.35,7.93-8.35a7,7,0,0,1,4.92,2l-1.25,1.34a5.07,5.07,0,0,0-3.63-1.52c-3.38,0-5.62,2.49-5.62,6.5s2.14,6.58,5.53,6.58a5.58,5.58,0,0,0,4.14-1.81l1.25,1.29A7.22,7.22,0,0,1,832,103C827.53,103,824.2,99.93,824.2,94.7Z" transform="translate(-35 -54.76)" fill="#fff"/><path d="M839.86,96.79A6.14,6.14,0,1,1,846,103,6,6,0,0,1,839.86,96.79Zm10,0c0-2.73-1.54-4.59-3.82-4.59s-3.82,1.86-3.82,4.59,1.54,4.56,3.82,4.56S849.82,99.52,849.82,96.79Z" transform="translate(-35 -54.76)" fill="#fff"/><path d="M855.7,98.37V90.82h2.24v7.29c0,2.22.75,3.17,2.5,3.17,1.35,0,2.29-.61,3.55-2V90.82h2.24v11.92h-1.85l-.19-1.87h-.08a5.81,5.81,0,0,1-4.36,2.16C857,103,855.7,101.41,855.7,98.37Z" transform="translate(-35 -54.76)" fill="#fff"/><path d="M871,90.82h1.85L873,93h.07a4.58,4.58,0,0,1,3.77-2.47,3.36,3.36,0,0,1,1.41.25l-.42,1.77a4,4,0,0,0-1.28-.2c-1.12,0-2.46.73-3.35,2.74v7.66H871Z" transform="translate(-35 -54.76)" fill="#fff"/><path d="M879.11,101.38l1.11-1.33a6.36,6.36,0,0,0,3.91,1.41c1.74,0,2.6-.83,2.6-1.85,0-1.23-1.56-1.77-3-2.26-1.85-.61-4-1.43-4-3.44s1.7-3.39,4.57-3.39a7.2,7.2,0,0,1,4.12,1.34l-1.08,1.29a5.33,5.33,0,0,0-3-1.06c-1.66,0-2.43.8-2.43,1.71,0,1.14,1.44,1.57,2.94,2.07,1.91.65,4,1.35,4,3.62,0,1.93-1.7,3.54-4.83,3.54A8.55,8.55,0,0,1,879.11,101.38Z" transform="translate(-35 -54.76)" fill="#fff"/><path d="M891.28,96.79a6,6,0,0,1,6-6.27c3.38,0,5.29,2.19,5.29,5.6a5.3,5.3,0,0,1-.11,1.14H893.5a4.17,4.17,0,0,0,4.39,4.16,6.28,6.28,0,0,0,3.3-1l.8,1.32a8.32,8.32,0,0,1-4.37,1.24A6,6,0,0,1,891.28,96.79Zm9.26-1c0-2.39-1.2-3.69-3.27-3.69a3.87,3.87,0,0,0-3.8,3.69Z" transform="translate(-35 -54.76)" fill="#fff"/><path d="M904.58,101.38l1.1-1.33a6.36,6.36,0,0,0,3.91,1.41c1.74,0,2.6-.83,2.6-1.85,0-1.23-1.56-1.77-3-2.26-1.85-.61-3.95-1.43-3.95-3.44s1.7-3.39,4.57-3.39a7.2,7.2,0,0,1,4.12,1.34l-1.07,1.29a5.36,5.36,0,0,0-3-1.06c-1.67,0-2.44.8-2.44,1.71,0,1.14,1.44,1.57,2.94,2.07,1.91.65,4,1.35,4,3.62,0,1.93-1.71,3.54-4.83,3.54A8.5,8.5,0,0,1,904.58,101.38Z" transform="translate(-35 -54.76)" fill="#fff"/><path d="M117.46,591.75l-16.61-16.61a1.69,1.69,0,0,1,.74-3l20.47-6.58c1.57-.5,2.5.38,2.07,2l-6.66,24.25" transform="translate(-35 -54.76)" fill="#072660"/><line x1="73.5" y1="526.74" x2="51.5" y2="548.74" fill="none" stroke="#072660" stroke-linecap="round" stroke-miterlimit="10" stroke-width="3"/><path d="M256.07,466.62,239.46,450a1.69,1.69,0,0,1,.74-3l20.47-6.58c1.58-.5,2.5.39,2.07,2l-6.66,24.25" transform="translate(-35 -54.76)" fill="#072660"/><line x1="212.11" y1="401.61" x2="190.11" y2="423.61" fill="none" stroke="#072660" stroke-linecap="round" stroke-miterlimit="10" stroke-width="3"/><path d="M380.36,360.82l-16.61-16.6a1.69,1.69,0,0,1,.74-3L385,334.6c1.57-.51,2.49.38,2.06,2l-6.65,24.26" transform="translate(-35 -54.76)" fill="#072660"/><line x1="336.4" y1="295.82" x2="314.4" y2="317.82" fill="none" stroke="#072660" stroke-linecap="round" stroke-miterlimit="10" stroke-width="3"/><path d="M506.36,240.53l-16.61-16.61a1.68,1.68,0,0,1,.74-3L511,214.31c1.57-.51,2.49.38,2.06,2l-6.65,24.26" transform="translate(-35 -54.76)" fill="#072660"/><line x1="462.4" y1="175.53" x2="440.4" y2="197.53" fill="none" stroke="#072660" stroke-linecap="round" stroke-miterlimit="10" stroke-width="3"/><path d="M628.94,129.32l-16.6-16.6a1.68,1.68,0,0,1,.73-3l20.48-6.58c1.57-.5,2.5.38,2.06,2L629,129.33" transform="translate(-35 -54.76)" fill="#072660"/><line x1="584.98" y1="64.32" x2="562.98" y2="86.32" fill="none" stroke="#072660" stroke-linecap="round" stroke-miterlimit="10" stroke-width="3"/><path d="M750.48,340.47V317a1.68,1.68,0,0,1,2.67-1.63l19.18,9.83c1.47.75,1.5,2,.06,2.85l-21.9,12.45" transform="translate(-35 -54.76)" fill="#072660"/><line x1="716.39" y1="272.14" x2="685.22" y2="272.14" fill="none" stroke="#072660" stroke-linecap="round" stroke-miterlimit="10" stroke-width="3"/></svg>